<svg width="317" height="80" viewBox="0 0 317 80" fill="none" xmlns="http://www.w3.org/2000/svg">
<g clip-path="url(#clip0_14_833)">
<path d="M105.236 55.3888V43.5095C105.234 43.3013 105.274 43.0947 105.353 42.9019C105.432 42.7091 105.55 42.5339 105.698 42.3866C105.846 42.2393 106.022 42.1229 106.216 42.0442C106.41 41.9654 106.618 41.9259 106.827 41.9279C107.038 41.9254 107.247 41.9644 107.442 42.0427C107.637 42.1211 107.815 42.2372 107.965 42.3843C108.114 42.5314 108.233 42.7066 108.315 42.8998C108.396 43.093 108.437 43.3002 108.437 43.5095V48.416L113.857 42.6244C114.005 42.4236 114.195 42.2572 114.414 42.1369C114.633 42.0166 114.876 41.9453 115.126 41.9279C115.407 41.9074 115.688 41.9737 115.93 42.1179C116.171 42.262 116.362 42.4768 116.476 42.733C116.59 42.9892 116.622 43.2742 116.566 43.5489C116.511 43.8237 116.372 44.0747 116.168 44.2676L112.246 48.312L116.76 54.5268C116.923 54.7642 117.017 55.0418 117.032 55.3289C117.047 55.6161 116.981 55.9017 116.843 56.1544C116.705 56.407 116.5 56.6169 116.249 56.7609C115.999 56.9049 115.713 56.9774 115.424 56.9704C115.162 56.9702 114.903 56.9067 114.67 56.7854C114.438 56.6641 114.238 56.4886 114.089 56.2739L110.001 50.5017L108.453 52.1872V55.3888C108.453 55.5967 108.413 55.8026 108.333 55.9947C108.253 56.1868 108.136 56.3614 107.988 56.5083C107.84 56.6553 107.665 56.7718 107.471 56.8511C107.278 56.9304 107.071 56.9709 106.862 56.9704C106.65 56.9766 106.438 56.9403 106.241 56.8634C106.043 56.7866 105.863 56.6709 105.711 56.5232C105.559 56.3756 105.439 56.199 105.357 56.0041C105.276 55.8092 105.235 55.5999 105.236 55.3888Z" fill="#31D3A9"/>
<path d="M120.619 42.0742H125.651C128.914 42.0742 131.097 44.31 131.097 46.9421C131.097 49.8513 128.872 52.2526 125.589 52.2526H122.218V55.3888C122.218 55.5967 122.177 55.8026 122.098 55.9947C122.018 56.1868 121.901 56.3614 121.753 56.5083C121.605 56.6553 121.429 56.7718 121.236 56.8511C121.043 56.9304 120.836 56.9709 120.627 56.9704C120.416 56.9746 120.206 56.9366 120.01 56.8588C119.814 56.781 119.636 56.665 119.486 56.5176C119.336 56.3702 119.217 56.1943 119.136 56.0004C119.056 55.8066 119.015 55.5986 119.017 55.3888V43.675C119.013 42.6437 119.586 42.0742 120.619 42.0742ZM125.136 49.6397C125.493 49.6603 125.849 49.6066 126.184 49.4822C126.518 49.3578 126.822 49.1654 127.077 48.9172C127.332 48.6691 127.533 48.3707 127.665 48.0411C127.797 47.7116 127.859 47.3582 127.846 47.0037C127.846 45.6568 126.766 44.6678 125.136 44.6678H122.21V49.6397H125.136Z" fill="#31D3A9"/>
<path d="M143.805 57.0744C141.814 57.1166 139.862 56.5262 138.231 55.3889C138.025 55.2581 137.854 55.0779 137.736 54.8648C137.618 54.6517 137.555 54.4124 137.554 54.169C137.55 53.9804 137.583 53.7929 137.653 53.6173C137.722 53.4418 137.826 53.2817 137.958 53.1463C138.09 53.011 138.248 52.9031 138.423 52.829C138.597 52.7548 138.785 52.7159 138.975 52.7144C139.292 52.716 139.602 52.8111 139.865 52.9876C140.961 53.8494 142.304 54.3439 143.701 54.3999C145.567 54.3999 146.159 53.4725 146.159 52.5874C146.159 51.5984 145.385 51.2405 143.933 50.9019L141.998 50.4401C140.155 49.9976 137.991 49.0086 137.991 46.161C137.991 44.056 139.753 41.8241 143.41 41.8241C145.129 41.8056 146.813 42.3047 148.241 43.2556C148.457 43.3857 148.636 43.5679 148.762 43.7852C148.888 44.0025 148.956 44.2478 148.961 44.4985C148.97 44.6891 148.939 44.8794 148.871 45.0579C148.804 45.2365 148.7 45.3995 148.568 45.5372C148.435 45.675 148.276 45.7845 148.099 45.8593C147.922 45.9341 147.733 45.9726 147.541 45.9724C147.241 45.9824 146.946 45.9019 146.693 45.7415C145.708 45.0018 144.517 44.5825 143.283 44.5409C141.587 44.5409 141.185 45.4029 141.185 45.9724C141.185 46.9421 141.882 47.3 143.12 47.6156L145.299 48.1658C147.823 48.7969 149.348 49.9976 149.348 52.2949C149.379 54.8847 147.471 57.0744 143.805 57.0744Z" fill="#34C1F6"/>
<path d="M156.285 45.8646C157.106 45.8357 157.922 46.0043 158.663 46.356C159.404 46.7078 160.049 47.2322 160.543 47.8849C161.096 48.6545 160.779 50.1399 159.486 50.1399C159.251 50.1442 159.018 50.0951 158.804 49.9964C158.591 49.8978 158.403 49.752 158.255 49.5704C157.663 48.8007 157.094 48.4544 156.32 48.4544C154.814 48.4544 153.881 49.6974 153.881 51.5329C153.881 53.2992 154.837 54.5653 156.339 54.5653C157.253 54.5653 157.845 54.1805 158.437 53.1954C158.542 53.0012 158.698 52.8395 158.89 52.7281C159.081 52.6168 159.299 52.5601 159.521 52.5643C160.771 52.5643 161.298 53.7418 160.643 54.777C159.625 56.3778 158.143 57.0859 156.277 57.0859C152.906 57.0859 150.788 54.9809 150.788 51.5483C150.812 48.2274 153.022 45.8646 156.285 45.8646Z" fill="#34C1F6"/>
<path d="M171.327 56.9704C171.126 56.9715 170.928 56.9329 170.742 56.8571C170.557 56.7813 170.388 56.6696 170.246 56.5286C170.104 56.3876 169.992 56.2201 169.916 56.0357C169.84 55.8513 169.801 55.6537 169.802 55.4543V50.5017C169.802 49.555 169.589 48.416 168.002 48.416C166.581 48.416 165.819 49.5704 165.819 51.1559V55.4543C165.819 55.6555 165.78 55.8548 165.702 56.0405C165.624 56.2262 165.509 56.3946 165.365 56.5358C165.221 56.677 165.05 56.7881 164.862 56.8628C164.674 56.9374 164.473 56.974 164.27 56.9704C163.868 56.9645 163.483 56.8028 163.199 56.5198C162.914 56.2367 162.751 55.8545 162.745 55.4543V42.813C162.751 42.4127 162.914 42.0306 163.199 41.7475C163.483 41.4645 163.868 41.3028 164.27 41.2968C164.473 41.2933 164.674 41.3299 164.862 41.4045C165.05 41.4791 165.221 41.5903 165.365 41.7315C165.509 41.8727 165.624 42.0411 165.702 42.2268C165.78 42.4125 165.819 42.6118 165.819 42.813V47.3423C166.186 46.8614 166.664 46.4761 167.214 46.2194C167.763 45.9627 168.367 45.8423 168.974 45.8685C171.625 45.8685 172.844 47.9118 172.844 49.8513V55.4543C172.838 55.8532 172.677 56.2343 172.394 56.5171C172.111 56.8 171.728 56.9625 171.327 56.9704Z" fill="#34C1F6"/>
<path d="M174.633 51.4714C174.633 48.185 176.882 45.8685 180.272 45.8685C183.663 45.8685 185.951 48.1773 185.951 51.4714C185.951 54.7654 183.683 57.0743 180.272 57.0743C176.862 57.0743 174.633 54.7808 174.633 51.4714ZM180.272 54.5499C181.925 54.5499 182.858 53.2454 182.858 51.4714C182.858 49.6974 181.925 48.3928 180.272 48.3928C178.62 48.3928 177.729 49.6781 177.729 51.4714C177.729 53.2646 178.682 54.5461 180.272 54.5461V54.5499Z" fill="#34C1F6"/>
<path d="M189.361 41.2969C189.562 41.2958 189.761 41.3344 189.946 41.4102C190.131 41.486 190.3 41.5977 190.442 41.7387C190.584 41.8796 190.696 42.0472 190.772 42.2316C190.849 42.416 190.887 42.6136 190.886 42.813V55.4543C190.887 55.6537 190.849 55.8513 190.772 56.0357C190.696 56.2201 190.584 56.3877 190.442 56.5287C190.3 56.6696 190.131 56.7813 189.946 56.8571C189.761 56.9329 189.562 56.9715 189.361 56.9705C188.959 56.9645 188.574 56.8028 188.289 56.5198C188.005 56.2367 187.842 55.8546 187.836 55.4543V42.813C187.842 42.4128 188.005 42.0306 188.289 41.7475C188.574 41.4645 188.959 41.3028 189.361 41.2969Z" fill="#34C1F6"/>
<path d="M192.841 53.9804C192.841 51.9793 194.471 51.0288 196.274 50.6094L199.599 49.8398C199.495 48.9123 198.922 48.3428 197.691 48.3428C196.46 48.3428 195.678 48.997 194.854 49.4973C194.61 49.6425 194.333 49.7221 194.049 49.7282C192.945 49.7282 192.5 48.3159 193.367 47.6232C194.643 46.498 196.284 45.8693 197.989 45.8531C201.357 45.8531 202.588 47.8964 202.588 50.086V55.7121C202.571 56.0636 202.414 56.3941 202.152 56.6308C201.89 56.8674 201.544 56.991 201.19 56.9743C201.014 56.9868 200.837 56.9637 200.67 56.9064C200.503 56.8491 200.349 56.7588 200.218 56.6408C200.088 56.5229 199.982 56.3797 199.908 56.2201C199.834 56.0605 199.794 55.8877 199.789 55.7121V55.2888C199.428 55.8674 198.917 56.3388 198.309 56.6536C197.702 56.9684 197.02 57.1151 196.336 57.0782C194.025 57.0743 192.841 55.6236 192.841 53.9804ZM197.161 54.75C197.497 54.7448 197.828 54.6724 198.135 54.5371C198.443 54.4018 198.719 54.2064 198.949 53.9626C199.179 53.7188 199.357 53.4316 199.473 53.1179C199.588 52.8043 199.639 52.4708 199.623 52.1372V51.9255L197.161 52.495C196.313 52.6836 195.891 53.1069 195.891 53.6764C195.891 54.3575 196.294 54.7385 197.161 54.7385V54.75Z" fill="#34C1F6"/>
<path d="M204.98 55.4543V47.3731C204.983 46.9944 205.136 46.632 205.405 46.3642C205.674 46.0964 206.039 45.9446 206.42 45.9416C206.609 45.9416 206.796 45.9786 206.971 46.0505C207.146 46.1225 207.304 46.2279 207.438 46.3609C207.572 46.4938 207.678 46.6516 207.75 46.8253C207.823 46.999 207.86 47.1851 207.86 47.3731V48.1427C208.475 46.8805 209.47 46.0378 210.678 46.0378H210.806C210.975 46.0367 211.142 46.0694 211.299 46.1338C211.455 46.1983 211.597 46.2932 211.715 46.413C211.834 46.5329 211.927 46.6751 211.99 46.8314C212.052 46.9878 212.083 47.1549 212.079 47.3231C212.092 47.5035 212.066 47.6844 212.004 47.8545C211.942 48.0245 211.845 48.1799 211.72 48.3106C211.594 48.4413 211.442 48.5446 211.274 48.6137C211.106 48.6829 210.925 48.7164 210.744 48.7123H210.635C209.048 48.7123 208.03 50.0591 208.03 52.3796V55.4581C208.031 55.6575 207.992 55.8551 207.916 56.0395C207.84 56.2239 207.728 56.3915 207.586 56.5325C207.444 56.6735 207.275 56.7851 207.09 56.8609C206.904 56.9368 206.706 56.9753 206.505 56.9743C206.102 56.9683 205.717 56.8061 205.432 56.5222C205.147 56.2384 204.985 55.8552 204.98 55.4543Z" fill="#34C1F6"/>
<path d="M217.436 57.0743C216.038 57.0996 214.656 56.7824 213.411 56.1507C213.2 56.0467 213.021 55.8875 212.894 55.6902C212.767 55.4929 212.697 55.265 212.691 55.0309C212.689 54.8691 212.719 54.7084 212.779 54.5582C212.84 54.408 212.93 54.2712 213.044 54.1557C213.158 54.0402 213.294 53.9482 213.444 53.8851C213.594 53.822 213.755 53.789 213.918 53.788C214.15 53.7958 214.376 53.862 214.576 53.9804C215.386 54.4568 216.305 54.7216 217.247 54.75C218.497 54.75 218.876 54.2228 218.876 53.7187C218.876 53.2146 218.489 52.9491 217.607 52.749L216.082 52.4142C214.638 52.0948 213.008 51.2943 213.008 49.1663C213.008 47.5886 214.386 45.8607 217.204 45.8607C218.38 45.8407 219.544 46.1048 220.595 46.6304C220.825 46.7245 221.021 46.8846 221.159 47.0902C221.297 47.2958 221.37 47.5377 221.369 47.7848C221.375 47.9477 221.347 48.11 221.288 48.2619C221.229 48.4137 221.139 48.552 221.024 48.6683C220.909 48.7846 220.772 48.8764 220.62 48.9382C220.469 49 220.306 49.0305 220.142 49.0278C219.891 49.0122 219.647 48.9468 219.422 48.8354C218.745 48.464 217.989 48.2557 217.216 48.2274C216.201 48.2274 215.818 48.6468 215.818 49.0894C215.818 49.5935 216.205 49.8282 216.836 49.9745L218.594 50.3939C220.529 50.8595 221.752 51.7446 221.752 53.4724C221.76 55.3503 220.363 57.0743 217.436 57.0743Z" fill="#34C1F6"/>
<path d="M232.215 56.9705C232.015 56.9715 231.816 56.9329 231.63 56.8571C231.445 56.7813 231.276 56.6696 231.135 56.5287C230.993 56.3877 230.88 56.2201 230.804 56.0357C230.728 55.8513 230.689 55.6537 230.69 55.4543V50.5017C230.69 49.555 230.477 48.416 228.886 48.416C227.466 48.416 226.703 49.5704 226.703 51.1559V55.4543C226.704 55.6537 226.665 55.8513 226.589 56.0357C226.513 56.2201 226.401 56.3877 226.259 56.5287C226.117 56.6696 225.948 56.7813 225.763 56.8571C225.577 56.9329 225.379 56.9715 225.178 56.9705C224.775 56.9645 224.391 56.8028 224.106 56.5198C223.822 56.2367 223.659 55.8546 223.653 55.4543V42.813C223.659 42.4128 223.822 42.0306 224.106 41.7475C224.391 41.4645 224.775 41.3028 225.178 41.2969C225.379 41.2958 225.577 41.3344 225.763 41.4102C225.948 41.486 226.117 41.5977 226.259 41.7387C226.401 41.8796 226.513 42.0472 226.589 42.2316C226.665 42.416 226.704 42.6136 226.703 42.813V47.3423C227.071 46.8618 227.551 46.4769 228.101 46.2203C228.651 45.9637 229.255 45.843 229.862 45.8685C232.509 45.8685 233.733 47.9119 233.733 49.8513V55.4543C233.727 55.8532 233.565 56.2343 233.282 56.5171C232.999 56.8 232.616 56.9625 232.215 56.9705Z" fill="#34C1F6"/>
<path d="M237.615 41.0428C237.856 41.0302 238.097 41.0668 238.324 41.1502C238.55 41.2336 238.757 41.3621 238.932 41.5279C239.106 41.6936 239.245 41.8931 239.34 42.1141C239.434 42.3351 239.482 42.5729 239.481 42.813C239.482 43.053 239.434 43.2909 239.34 43.5119C239.245 43.7329 239.106 43.9324 238.932 44.0981C238.757 44.2639 238.55 44.3924 238.324 44.4758C238.097 44.5592 237.856 44.5958 237.615 44.5832C237.377 44.5915 237.14 44.5517 236.918 44.4662C236.696 44.3807 236.494 44.2513 236.324 44.0857C236.153 43.9202 236.019 43.722 235.928 43.5033C235.837 43.2845 235.792 43.0496 235.796 42.813C235.792 42.5763 235.837 42.3415 235.928 42.1227C236.019 41.9039 236.153 41.7058 236.324 41.5402C236.494 41.3747 236.696 41.2452 236.918 41.1597C237.14 41.0742 237.377 41.0345 237.615 41.0428ZM236.09 55.4543V47.4693C236.096 47.069 236.258 46.6868 236.543 46.4038C236.828 46.1207 237.212 45.9591 237.615 45.9531C238.022 45.953 238.412 46.112 238.702 46.3957C238.991 46.6794 239.157 47.0651 239.163 47.4693V55.4543C239.164 55.6555 239.124 55.8547 239.046 56.0404C238.968 56.2262 238.854 56.3945 238.71 56.5358C238.565 56.677 238.394 56.7881 238.206 56.8627C238.018 56.9374 237.817 56.974 237.615 56.9704C237.212 56.9644 236.828 56.8028 236.543 56.5197C236.258 56.2367 236.096 55.8545 236.09 55.4543Z" fill="#34C1F6"/>
<path d="M241.617 60.0451V47.4039C241.618 47.0245 241.77 46.661 242.04 46.3928C242.31 46.1245 242.676 45.9734 243.057 45.9724C243.24 45.9582 243.423 45.9812 243.596 46.04C243.769 46.0988 243.928 46.1922 244.063 46.3144C244.198 46.4366 244.307 46.5851 244.382 46.7506C244.458 46.9161 244.498 47.0952 244.501 47.2769V47.5732C245.136 46.5188 246.406 45.8877 247.931 45.8877C250.815 45.8877 252.87 48.1427 252.87 51.406C252.87 54.6692 250.834 57.0936 247.931 57.0936C247.317 57.1159 246.707 57.0028 246.143 56.7626C245.578 56.5224 245.075 56.161 244.668 55.7044V60.0644C244.671 60.2656 244.634 60.4654 244.559 60.6523C244.484 60.8391 244.372 61.0092 244.23 61.1526C244.088 61.2959 243.919 61.4096 243.732 61.4871C243.545 61.5646 243.345 61.6042 243.143 61.6036C242.733 61.5976 242.342 61.4301 242.056 61.1379C241.77 60.8457 241.612 60.4527 241.617 60.0451ZM247.253 54.5884C248.802 54.5884 249.777 53.3031 249.777 51.4714C249.777 49.6396 248.778 48.3544 247.253 48.3544C245.666 48.3544 244.625 49.5973 244.625 51.4714C244.625 53.3454 245.709 54.5884 247.253 54.5884Z" fill="#34C1F6"/>
<path d="M261.831 42.0742H266.642C269.716 42.0742 271.814 44.2022 271.814 46.8805C271.823 47.5562 271.695 48.2267 271.438 48.8521C271.18 49.4776 270.799 50.0451 270.316 50.5209C269.834 50.9967 269.26 51.3711 268.629 51.6217C267.997 51.8722 267.322 51.9939 266.642 51.9793H262.826V55.9815C262.824 56.2374 262.721 56.4823 262.539 56.6636C262.358 56.8449 262.112 56.9482 261.854 56.9512C261.723 56.9543 261.593 56.9316 261.471 56.8845C261.349 56.8373 261.237 56.7666 261.143 56.6765C261.048 56.5864 260.972 56.4787 260.92 56.3594C260.867 56.2401 260.839 56.1117 260.836 55.9815V43.0439C260.824 42.9118 260.841 42.7787 260.887 42.6541C260.933 42.5296 261.006 42.4167 261.102 42.3238C261.197 42.231 261.312 42.1604 261.438 42.1172C261.564 42.074 261.698 42.0593 261.831 42.0742ZM266.642 50.1553C267.068 50.1556 267.489 50.0705 267.88 49.9051C268.272 49.7396 268.626 49.4972 268.921 49.1925C269.216 48.8877 269.446 48.5269 269.597 48.1316C269.748 47.7363 269.818 47.3147 269.801 46.8921C269.801 45.2258 268.485 43.9213 266.642 43.9213H262.826V50.1553H266.642Z" fill="#34C1F6"/>
<path d="M273.064 51.5561C273.064 48.3121 275.27 46.0378 278.406 46.0378C281.541 46.0378 283.767 48.3121 283.767 51.5561C283.767 54.8001 281.541 57.0743 278.406 57.0743C275.27 57.0743 273.064 54.8001 273.064 51.5561ZM278.406 55.4543C280.442 55.4543 281.89 53.8303 281.89 51.5561C281.89 49.2818 280.45 47.6579 278.406 47.6579C276.362 47.6579 274.953 49.2818 274.953 51.5561C274.953 53.8303 276.374 55.4543 278.406 55.4543Z" fill="#34C1F6"/>
<path d="M286.194 56.043V47.046C286.192 46.9309 286.214 46.8167 286.257 46.7099C286.3 46.6031 286.364 46.5058 286.444 46.4236C286.525 46.3413 286.622 46.2758 286.728 46.2307C286.835 46.1857 286.949 46.1619 287.065 46.1609C287.297 46.1669 287.517 46.2628 287.679 46.4282C287.841 46.5935 287.932 46.8152 287.932 47.046V48.6084C288.547 47.0691 289.627 46.2033 291.091 46.2033H291.261C291.377 46.201 291.493 46.2226 291.601 46.2666C291.708 46.3106 291.806 46.3761 291.887 46.459C291.969 46.542 292.032 46.6406 292.073 46.7489C292.115 46.8571 292.133 46.9727 292.128 47.0883C292.127 47.3228 292.033 47.5473 291.866 47.7131C291.699 47.8788 291.473 47.9724 291.238 47.9734H291.11C289.267 47.9734 288.013 49.5127 288.013 52.2949V56.043C288.008 56.2817 287.911 56.5093 287.742 56.6784C287.572 56.8476 287.344 56.9453 287.104 56.9512C286.863 56.9482 286.632 56.8514 286.462 56.6816C286.292 56.5119 286.196 56.2826 286.194 56.043Z" fill="#34C1F6"/>
<path d="M293.231 47.0883C293.231 46.876 293.316 46.6724 293.467 46.5223C293.618 46.3722 293.823 46.2879 294.036 46.2879H295.139V43.2093C295.141 42.9701 295.238 42.7413 295.408 42.5721C295.578 42.403 295.808 42.307 296.049 42.305C296.17 42.3035 296.29 42.3257 296.402 42.3703C296.515 42.4149 296.617 42.4811 296.704 42.5651C296.791 42.6491 296.86 42.7492 296.907 42.8597C296.955 42.9702 296.98 43.0891 296.982 43.2093V46.2879H299.587C299.795 46.2949 299.993 46.3824 300.137 46.5319C300.282 46.6814 300.362 46.881 300.361 47.0883C300.355 47.2906 300.272 47.483 300.128 47.6261C299.984 47.7692 299.79 47.8521 299.587 47.858H296.982V53.6302C296.982 54.6808 297.28 55.4619 298.697 55.4619C299.075 55.4615 299.449 55.3897 299.8 55.2503C299.918 55.1952 300.048 55.1707 300.178 55.1789C300.308 55.1871 300.434 55.2278 300.544 55.2973C300.654 55.3667 300.745 55.4627 300.807 55.5762C300.87 55.6898 300.903 55.8172 300.903 55.9468C300.904 56.0902 300.865 56.2311 300.79 56.3535C300.714 56.4759 300.606 56.5749 300.477 56.6395C299.903 56.9384 299.263 57.0905 298.615 57.082C296.049 57.082 295.132 55.6505 295.132 53.7957V47.8772H294.032C293.821 47.8772 293.619 47.7943 293.468 47.6466C293.318 47.4989 293.233 47.2983 293.231 47.0883Z" fill="#34C1F6"/>
<path d="M302.25 54.0651C302.25 52.1872 303.713 51.2597 305.641 50.7556L309.477 49.7667C309.415 48.6892 308.865 47.6579 307 47.6579C305.475 47.6579 304.499 48.566 303.737 49.1971C303.559 49.3497 303.332 49.4331 303.098 49.4319C302.935 49.4274 302.777 49.3741 302.645 49.2789C302.513 49.1837 302.413 49.051 302.358 48.8983C302.303 48.7456 302.296 48.5799 302.338 48.4231C302.379 48.2663 302.467 48.1256 302.591 48.0196C303.154 47.3987 303.84 46.9005 304.606 46.5561C305.372 46.2117 306.202 46.0287 307.042 46.0185C310.05 46.0185 311.281 47.8272 311.281 49.936V56.093C311.28 56.3162 311.19 56.53 311.031 56.6878C310.873 56.8457 310.658 56.9348 310.433 56.9358C310.32 56.9373 310.208 56.9167 310.103 56.8752C309.998 56.8337 309.903 56.772 309.822 56.6937C309.741 56.6155 309.677 56.5222 309.632 56.4191C309.587 56.316 309.564 56.2052 309.562 56.093V54.8924C309.205 55.5768 308.658 56.1448 307.985 56.5289C307.313 56.9129 306.543 57.0969 305.769 57.0589C303.419 57.0743 302.25 55.6428 302.25 54.0651ZM306.067 55.5158C307.824 55.5158 309.5 53.9765 309.5 51.4291V51.3021L306.067 52.1872C304.731 52.5451 304.131 53.1569 304.131 53.9573C304.131 54.7577 304.627 55.5158 306.067 55.5158Z" fill="#34C1F6"/>
<path d="M315.198 41.3161C315.438 41.322 315.667 41.4197 315.836 41.5888C316.006 41.758 316.103 41.9856 316.108 42.2243V56.043C316.103 56.2817 316.006 56.5093 315.836 56.6784C315.667 56.8476 315.438 56.9453 315.198 56.9512C314.957 56.9492 314.725 56.8529 314.554 56.683C314.384 56.5131 314.287 56.2832 314.285 56.043V42.2243C314.287 41.984 314.384 41.7542 314.554 41.5843C314.725 41.4144 314.957 41.3181 315.198 41.3161Z" fill="#34C1F6"/>
<mask id="mask0_14_833" style="mask-type:luminance" maskUnits="userSpaceOnUse" x="9" y="18" width="80" height="61">
<path d="M82.7197 40.2001H67.759C66.9259 40.2032 66.1258 40.5244 65.5242 41.0974C64.9226 41.6704 64.5656 42.4513 64.5268 43.2787L64.2288 47.5117H59.2548C58.6802 47.5127 58.1294 47.74 57.7231 48.1439C57.3168 48.5479 57.0881 49.0954 57.0871 49.6666C57.0871 50.2382 57.3155 50.7863 57.722 51.1904C58.1285 51.5946 58.6799 51.8216 59.2548 51.8216H68.2699L68.7848 44.5101H81.6204L83.5559 74.4065H66.679L67.6042 61.3228L67.6506 60.6878L65.9436 60.2183C60.3307 58.6445 54.527 57.8443 48.6951 57.8401C43.0295 57.8639 37.3893 58.5956 31.9073 60.0182L30.1577 60.4646L31.1448 74.3911H14.2641L16.1995 44.4947H29.0352L29.159 46.2302L29.5268 51.8062H35.7627C36.3317 51.8062 36.9239 51.8062 37.4968 51.8062C38.0697 51.8062 38.6581 51.8062 39.2581 51.8062C40.8995 51.8289 42.5399 51.7156 44.1624 51.4676C46.7712 51.0315 49.282 50.1403 51.5789 48.8354C55.8372 46.4155 59.1939 42.6911 61.1476 38.2183C61.3373 37.7796 61.5347 37.3217 61.6779 36.8638C61.7205 36.756 61.7592 36.6444 61.7941 36.5367V36.5059C61.7928 36.497 61.7928 36.4879 61.7941 36.4789C62.2335 35.1329 62.4569 33.7265 62.4559 32.3114C62.4587 30.5093 62.0954 28.7253 61.3876 27.0663C60.7095 25.4656 59.7233 24.012 58.4845 22.7872C57.2525 21.5556 55.7903 20.5752 54.1801 19.901C52.5113 19.1974 50.7168 18.8361 48.9042 18.8389C47.0915 18.8361 45.297 19.1974 43.6282 19.901C42.018 20.5752 40.5559 21.5556 39.3238 22.7872C37.6139 24.5045 36.399 26.6467 35.806 28.9901C35.2129 31.3335 35.2635 33.7922 35.9524 36.1095C36.5488 38.0356 37.5724 39.8042 38.9478 41.2847C40.3231 42.7652 42.0152 43.92 43.8992 44.664C44.1458 44.7609 44.4082 44.8118 44.6734 44.8141C45.1094 44.8153 45.5356 44.685 45.8957 44.4404C46.2557 44.1958 46.5327 43.8484 46.6901 43.4441C46.7952 43.1813 46.8467 42.9003 46.8414 42.6175C46.836 42.3347 46.7741 42.0558 46.6591 41.7971C46.5469 41.536 46.3837 41.2995 46.1791 41.1014C45.9745 40.9032 45.7324 40.7474 45.4669 40.6427C44.1946 40.1312 43.0518 39.3465 42.1203 38.3446C41.1888 37.3427 40.4916 36.1484 40.0787 34.8473C39.6141 33.2778 39.5812 31.6131 39.9836 30.0267C40.3859 28.4403 41.2087 26.9901 42.3663 25.8272C43.2063 24.9899 44.2013 24.3221 45.2966 23.8608C46.4318 23.3833 47.6522 23.1385 48.8848 23.1412C50.1288 23.1573 51.3564 23.4257 52.4924 23.9301C53.5887 24.3895 54.5841 25.0575 55.4226 25.8965C56.2666 26.7301 56.9385 27.7197 57.4007 28.8096C57.8806 29.9369 58.1267 31.1488 58.1245 32.3729C58.1262 33.3456 57.9706 34.3123 57.6639 35.236C57.6368 35.3245 57.6058 35.4092 57.5748 35.4938C57.5206 35.6439 57.4626 35.794 57.4007 35.9402C57.3677 36.0163 57.3405 36.0948 57.3193 36.1749L57.1529 36.5597C55.5716 40.1759 52.8558 43.1863 49.4113 45.1412C47.5528 46.1927 45.5235 46.913 43.4153 47.2692C42.0396 47.4751 40.6491 47.5678 39.2581 47.5463C38.6891 47.5463 38.12 47.5463 37.5162 47.5463C36.9433 47.5463 36.3549 47.5463 35.7549 47.5463H33.5795L33.475 46.007L33.2854 43.3133C33.2466 42.4859 32.8896 41.705 32.288 41.132C31.6864 40.559 30.8863 40.2378 30.0532 40.2348H15.0924C14.2799 40.2434 13.5011 40.5593 12.9144 41.1183C12.3277 41.6772 11.9771 42.4373 11.9338 43.244L9.65002 78.7511H35.7975L34.7408 63.8202C39.3177 62.7612 43.9998 62.2178 48.699 62.2001C53.5475 62.2017 58.3773 62.7976 63.0791 63.9742L62.0921 77.9199L62.034 78.7511H88.1815L85.8977 43.2402C85.8601 42.4254 85.5095 41.6559 84.9183 41.0904C84.3271 40.5248 83.5402 40.2062 82.7197 40.2001Z" fill="white"/>
</mask>
<g mask="url(#mask0_14_833)">
<path d="M11.6976 18.8889H9.63062V78.7165H11.6976V18.8889Z" fill="#34D399"/>
<path d="M13.7647 18.8889H11.6976V78.7165H13.7647V18.8889Z" fill="#34D39A"/>
<path d="M15.8318 18.8889H13.7648V78.7165H15.8318V18.8889Z" fill="#34D39B"/>
<path d="M17.8988 18.8889H15.8318V78.7165H17.8988V18.8889Z" fill="#33D39C"/>
<path d="M19.9619 18.8889H17.8949V78.7165H19.9619V18.8889Z" fill="#33D39D"/>
<path d="M22.0288 18.8889H19.9618V78.7165H22.0288V18.8889Z" fill="#33D39E"/>
<path d="M24.096 18.8889H22.0289V78.7165H24.096V18.8889Z" fill="#33D39F"/>
<path d="M26.163 18.8889H24.0959V78.7165H26.163V18.8889Z" fill="#33D3A0"/>
<path d="M28.23 18.8889H26.163V78.7165H28.23V18.8889Z" fill="#32D3A1"/>
<path d="M30.297 18.8889H28.23V78.7165H30.297V18.8889Z" fill="#32D3A2"/>
<path d="M32.3641 18.8889H30.2971V78.7165H32.3641V18.8889Z" fill="#32D3A3"/>
<path d="M34.431 18.8889H32.364V78.7165H34.431V18.8889Z" fill="#32D3A4"/>
<path d="M36.4981 18.8889H34.431V78.7165H36.4981V18.8889Z" fill="#32D3A5"/>
<path d="M38.5651 18.8889H36.498V78.7165H38.5651V18.8889Z" fill="#32D3A6"/>
<path d="M40.6322 18.8889H38.5652V78.7165H40.6322V18.8889Z" fill="#31D3A7"/>
<path d="M42.6953 18.8889H40.6283V78.7165H42.6953V18.8889Z" fill="#31D3A8"/>
<path d="M44.7622 18.8889H42.6952V78.7165H44.7622V18.8889Z" fill="#31D3A9"/>
<path d="M46.8292 18.8889H44.7622V78.7165H46.8292V18.8889Z" fill="#31D3AA"/>
<path d="M48.8964 18.8889H46.8293V78.7165H48.8964V18.8889Z" fill="#31D3AB"/>
<path d="M50.9634 18.8889H48.8964V78.7165H50.9634V18.8889Z" fill="#30D4AD"/>
<path d="M53.0304 18.8889H50.9634V78.7165H53.0304V18.8889Z" fill="#30D4AE"/>
<path d="M55.0975 18.8889H53.0305V78.7165H55.0975V18.8889Z" fill="#30D4AF"/>
<path d="M57.1646 18.8889H55.0975V78.7165H57.1646V18.8889Z" fill="#30D4B0"/>
<path d="M59.2315 18.8889H57.1644V78.7165H59.2315V18.8889Z" fill="#30D4B1"/>
<path d="M61.2985 18.8889H59.2314V78.7165H61.2985V18.8889Z" fill="#2FD4B2"/>
<path d="M63.3656 18.8889H61.2986V78.7165H63.3656V18.8889Z" fill="#2FD4B3"/>
<path d="M65.4326 18.8889H63.3656V78.7165H65.4326V18.8889Z" fill="#2FD4B4"/>
<path d="M67.4957 18.8889H65.4287V78.7165H67.4957V18.8889Z" fill="#2FD4B5"/>
<path d="M69.5626 18.8889H67.4956V78.7165H69.5626V18.8889Z" fill="#2FD4B6"/>
<path d="M71.6298 18.8889H69.5627V78.7165H71.6298V18.8889Z" fill="#2FD4B7"/>
<path d="M73.6968 18.8889H71.6298V78.7165H73.6968V18.8889Z" fill="#2ED4B8"/>
<path d="M75.7638 18.8889H73.6968V78.7165H75.7638V18.8889Z" fill="#2ED4B9"/>
<path d="M77.8308 18.8889H75.7638V78.7165H77.8308V18.8889Z" fill="#2ED4BA"/>
<path d="M79.898 18.8889H77.8309V78.7165H79.898V18.8889Z" fill="#2ED4BB"/>
<path d="M81.9649 18.8889H79.8978V78.7165H81.9649V18.8889Z" fill="#2ED4BC"/>
<path d="M84.0319 18.8889H81.9648V78.7165H84.0319V18.8889Z" fill="#2DD4BD"/>
<path d="M86.0989 18.8889H84.0319V78.7165H86.0989V18.8889Z" fill="#2DD4BE"/>
<path d="M88.166 18.8889H86.099V78.7165H88.166V18.8889Z" fill="#2DD4BF"/>
</g>
<mask id="mask1_14_833" style="mask-type:luminance" maskUnits="userSpaceOnUse" x="0" y="0" width="98" height="38">
<path d="M96.6739 26.5814L49.9529 0.579314C49.6296 0.400726 49.266 0.306727 48.8962 0.306108C48.5251 0.306747 48.1603 0.400724 47.8356 0.579314L1.11851 26.5814C0.787008 26.7658 0.509943 27.0334 0.315004 27.3576C0.120065 27.6817 0.0140743 28.0509 0.00758658 28.4285C0.00326332 28.807 0.098927 29.18 0.285047 29.5103C0.471166 29.8405 0.741219 30.1163 1.06819 30.3103L12.7465 37.237C13.0811 37.4358 13.4637 37.5409 13.8536 37.541C14.0336 37.5404 14.2129 37.5184 14.3877 37.4756C14.9453 37.3355 15.4242 36.9812 15.7193 36.4905C16.013 35.9993 16.0989 35.4125 15.9581 34.8585C15.8174 34.3045 15.4615 33.8286 14.9684 33.5351L6.50668 28.5324L48.8962 4.94703L91.2857 28.5324L82.824 33.5351C82.3309 33.8286 81.975 34.3045 81.8343 34.8585C81.6935 35.4125 81.7794 35.9993 82.0731 36.4905C82.2666 36.8098 82.5395 37.0742 82.8656 37.2582C83.1917 37.4422 83.56 37.5396 83.935 37.541C84.3259 37.5397 84.7094 37.4347 85.0459 37.237L96.7242 30.3103C97.0507 30.1162 97.3202 29.8401 97.5057 29.5099C97.6911 29.1796 97.7861 28.8067 97.781 28.4285C97.776 28.0511 97.6711 27.6816 97.4767 27.3573C97.2824 27.033 97.0055 26.7654 96.6739 26.5814Z" fill="white"/>
</mask>
<g mask="url(#mask1_14_833)">
<path d="M0.0116125 0.306108H0V37.5372H0.0116125V0.306108Z" fill="#38BDF8"/>
<path d="M4.45482 0.306108H0.0111084V37.5372H4.45482V0.306108Z" fill="#38BDF8"/>
<path d="M8.89904 0.306108H4.45532V37.5372H8.89904V0.306108Z" fill="#37BEF8"/>
<path d="M13.3428 0.306108H8.89905V37.5372H13.3428V0.306108Z" fill="#36BFF7"/>
<path d="M17.7865 0.306108H13.3428V37.5372H17.7865V0.306108Z" fill="#35C0F7"/>
<path d="M22.2302 0.306108H17.7865V37.5372H22.2302V0.306108Z" fill="#34C1F6"/>
<path d="M26.6739 0.306108H22.2302V37.5372H26.6739V0.306108Z" fill="#33C2F6"/>
<path d="M31.1177 0.306108H26.674V37.5372H31.1177V0.306108Z" fill="#32C3F5"/>
<path d="M35.5652 0.306108H31.1215V37.5372H35.5652V0.306108Z" fill="#31C4F5"/>
<path d="M40.0089 0.306108H35.5652V37.5372H40.0089V0.306108Z" fill="#30C5F4"/>
<path d="M44.4526 0.306108H40.0089V37.5372H44.4526V0.306108Z" fill="#2FC6F4"/>
<path d="M48.8964 0.306108H44.4526V37.5372H48.8964V0.306108Z" fill="#2EC7F3"/>
<path d="M53.3401 0.306108H48.8964V37.5372H53.3401V0.306108Z" fill="#2CC9F3"/>
<path d="M57.7838 0.306108H53.3401V37.5372H57.7838V0.306108Z" fill="#2BCAF2"/>
<path d="M62.2275 0.306108H57.7838V37.5372H62.2275V0.306108Z" fill="#2ACBF2"/>
<path d="M66.675 0.306108H62.2313V37.5372H66.675V0.306108Z" fill="#29CCF1"/>
<path d="M71.1188 0.306108H66.675V37.5372H71.1188V0.306108Z" fill="#28CDF1"/>
<path d="M75.5625 0.306108H71.1188V37.5372H75.5625V0.306108Z" fill="#27CEF0"/>
<path d="M80.0062 0.306108H75.5625V37.5372H80.0062V0.306108Z" fill="#26CFF0"/>
<path d="M84.4499 0.306108H80.0062V37.5372H84.4499V0.306108Z" fill="#25D0EF"/>
<path d="M88.8937 0.306108H84.45V37.5372H88.8937V0.306108Z" fill="#24D1EF"/>
<path d="M93.3374 0.306108H88.8937V37.5372H93.3374V0.306108Z" fill="#23D2EE"/>
<path d="M97.785 0.306108H93.3413V37.5372H97.785V0.306108Z" fill="#22D3EE"/>
</g>
<mask id="mask2_14_833" style="mask-type:luminance" maskUnits="userSpaceOnUse" x="0" y="35" width="7" height="19">
<path d="M6.49146 49.9821C6.49043 50.8194 6.15515 51.622 5.55928 52.2137C4.96341 52.8053 4.15565 53.1377 3.31347 53.1377C2.89664 53.1377 2.48392 53.056 2.09883 52.8974C1.71373 52.7389 1.36382 52.5065 1.06908 52.2134C0.774336 51.9204 0.540515 51.5726 0.381003 51.1897C0.22149 50.8069 0.139406 50.3965 0.139406 49.9821C0.138826 49.4552 0.271012 48.9365 0.523891 48.4733C0.776769 48.0102 1.14228 47.6174 1.58709 47.3308V36.7983C1.58709 36.5736 1.6317 36.3511 1.71831 36.1436C1.80492 35.936 1.93183 35.7475 2.09183 35.5888C2.25183 35.4301 2.44176 35.3043 2.65072 35.2187C2.85969 35.133 3.08357 35.0892 3.3096 35.0897C3.76528 35.0905 4.20218 35.2703 4.52504 35.59C4.84661 35.911 5.02752 36.3453 5.02827 36.7983V47.3231C5.4768 47.6089 5.84586 48.0021 6.10154 48.4668C6.35721 48.9314 6.49131 49.4525 6.49146 49.9821Z" fill="white"/>
</mask>
<g mask="url(#mask2_14_833)">
<path d="M0.429717 35.0897H0.139404V53.1376H0.429717V35.0897Z" fill="#38BDF8"/>
<path d="M0.716216 35.0897H0.425903V53.1377H0.716216V35.0897Z" fill="#37BEF8"/>
<path d="M1.00638 35.0897H0.716064V53.1377H1.00638V35.0897Z" fill="#36BFF7"/>
<path d="M1.29678 35.0897H1.00647V53.1377H1.29678V35.0897Z" fill="#35C0F7"/>
<path d="M1.58328 35.0897H1.29297V53.1377H1.58328V35.0897Z" fill="#34C1F6"/>
<path d="M1.87344 35.0897H1.58313V53.1377H1.87344V35.0897Z" fill="#33C2F6"/>
<path d="M2.15994 35.0897H1.86963V53.1377H2.15994V35.0897Z" fill="#32C3F5"/>
<path d="M2.45035 35.0897H2.16003V53.1377H2.45035V35.0897Z" fill="#31C4F5"/>
<path d="M2.74051 35.0897H2.4502V53.1377H2.74051V35.0897Z" fill="#30C5F4"/>
<path d="M3.02701 35.0897H2.73669V53.1377H3.02701V35.0897Z" fill="#2FC6F4"/>
<path d="M3.31741 35.0897H3.0271V53.1377H3.31741V35.0897Z" fill="#2EC7F3"/>
<path d="M3.60367 35.0897H3.31335V53.1377H3.60367V35.0897Z" fill="#2CC9F3"/>
<path d="M3.89407 35.0897H3.60376V53.1377H3.89407V35.0897Z" fill="#2BCAF2"/>
<path d="M4.18448 35.0897H3.89417V53.1377H4.18448V35.0897Z" fill="#2ACBF2"/>
<path d="M4.47073 35.0897H4.18042V53.1377H4.47073V35.0897Z" fill="#29CCF1"/>
<path d="M4.76114 35.0897H4.47083V53.1377H4.76114V35.0897Z" fill="#28CDF1"/>
<path d="M5.04764 35.0897H4.75732V53.1377H5.04764V35.0897Z" fill="#27CEF0"/>
<path d="M5.3378 35.0897H5.04749V53.1377H5.3378V35.0897Z" fill="#26CFF0"/>
<path d="M5.6282 35.0897H5.33789V53.1377H5.6282V35.0897Z" fill="#25D0EF"/>
<path d="M5.91458 35.0897H5.62427V53.1377H5.91458V35.0897Z" fill="#24D1EF"/>
<path d="M6.20499 35.0897H5.91467V53.1377H6.20499V35.0897Z" fill="#23D2EE"/>
<path d="M6.49148 35.0897H6.20117V53.1377H6.49148V35.0897Z" fill="#22D3EE"/>
</g>
<mask id="mask3_14_833" style="mask-type:luminance" maskUnits="userSpaceOnUse" x="43" y="26" width="11" height="11">
<path d="M49.2446 27.2433L50.1891 30.1333C50.2152 30.2053 50.2623 30.2679 50.3243 30.3131C50.3864 30.3583 50.4606 30.3842 50.5374 30.3873H53.5993C53.677 30.3864 53.753 30.4102 53.8161 30.4554C53.8792 30.5006 53.9261 30.5646 53.9499 30.6382C53.9737 30.7118 53.9732 30.791 53.9484 30.8643C53.9236 30.9375 53.8759 31.001 53.8122 31.0453L51.3387 32.8347C51.2822 32.8798 51.2394 32.9398 51.2155 33.0078C51.1915 33.0759 51.1873 33.1492 51.2033 33.2195L52.1516 36.1134C52.1648 36.1848 52.1574 36.2584 52.1303 36.3258C52.1032 36.3932 52.0574 36.4517 51.9983 36.4943C51.9392 36.537 51.8692 36.5621 51.7963 36.5669C51.7234 36.5717 51.6507 36.5558 51.5865 36.5212L49.113 34.7318C49.049 34.6888 48.9735 34.6658 48.8962 34.6658C48.8189 34.6658 48.7435 34.6888 48.6795 34.7318L46.206 36.5212C46.1418 36.5558 46.069 36.5717 45.9962 36.5669C45.9233 36.5621 45.8533 36.537 45.7942 36.4943C45.7351 36.4517 45.6893 36.3932 45.6621 36.3258C45.635 36.2584 45.6277 36.1848 45.6409 36.1134L46.5853 33.2195C46.6052 33.1497 46.6033 33.0755 46.5798 33.0067C46.5563 32.938 46.5123 32.878 46.4537 32.8347L43.9764 31.0453C43.9241 30.9951 43.8871 30.9313 43.8697 30.8612C43.8522 30.791 43.8549 30.7174 43.8775 30.6488C43.9001 30.5801 43.9417 30.5192 43.9976 30.473C44.0534 30.4267 44.1212 30.397 44.1932 30.3873H47.255C47.3319 30.3842 47.4061 30.3583 47.4681 30.3131C47.5302 30.2679 47.5773 30.2053 47.6034 30.1333L48.5479 27.2433C48.5704 27.1689 48.6165 27.1037 48.6792 27.0573C48.742 27.011 48.818 26.986 48.8962 26.986C48.9744 26.986 49.0505 27.011 49.1132 27.0573C49.176 27.1037 49.222 27.1689 49.2446 27.2433Z" fill="white"/>
</mask>
<g mask="url(#mask3_14_833)">
<path d="M44.2901 26.9047H43.8295V36.7483H44.2901V26.9047Z" fill="#38BDF8"/>
<path d="M44.7507 26.9047H44.29V36.7483H44.7507V26.9047Z" fill="#37BEF8"/>
<path d="M45.2112 26.9047H44.7506V36.7483H45.2112V26.9047Z" fill="#36BFF7"/>
<path d="M45.6719 26.9047H45.2113V36.7483H45.6719V26.9047Z" fill="#35C0F7"/>
<path d="M46.1326 26.9047H45.672V36.7483H46.1326V26.9047Z" fill="#34C1F6"/>
<path d="M46.5932 26.9047H46.1326V36.7483H46.5932V26.9047Z" fill="#33C2F6"/>
<path d="M47.0539 26.9047H46.5933V36.7483H47.0539V26.9047Z" fill="#32C3F5"/>
<path d="M47.5145 26.9047H47.0538V36.7483H47.5145V26.9047Z" fill="#31C4F5"/>
<path d="M47.975 26.9047H47.5144V36.7483H47.975V26.9047Z" fill="#30C5F4"/>
<path d="M48.4356 26.9047H47.975V36.7483H48.4356V26.9047Z" fill="#2FC6F4"/>
<path d="M48.8964 26.9047H48.4358V36.7483H48.8964V26.9047Z" fill="#2EC7F3"/>
<path d="M49.357 26.9047H48.8964V36.7483H49.357V26.9047Z" fill="#2CC9F3"/>
<path d="M49.8176 26.9047H49.3569V36.7483H49.8176V26.9047Z" fill="#2BCAF2"/>
<path d="M50.2781 26.9047H49.8175V36.7483H50.2781V26.9047Z" fill="#2ACBF2"/>
<path d="M50.739 26.9047H50.2783V36.7483H50.739V26.9047Z" fill="#29CCF1"/>
<path d="M51.1995 26.9047H50.7389V36.7483H51.1995V26.9047Z" fill="#28CDF1"/>
<path d="M51.6601 26.9047H51.1995V36.7483H51.6601V26.9047Z" fill="#27CEF0"/>
<path d="M52.1246 26.9047H51.6639V36.7483H52.1246V26.9047Z" fill="#26CFF0"/>
<path d="M52.5853 26.9047H52.1246V36.7483H52.5853V26.9047Z" fill="#25D0EF"/>
<path d="M53.0458 26.9047H52.5852V36.7483H53.0458V26.9047Z" fill="#24D1EF"/>
<path d="M53.5064 26.9047H53.0458V36.7483H53.5064V26.9047Z" fill="#23D2EE"/>
<path d="M53.9672 26.9047H53.5066V36.7483H53.9672V26.9047Z" fill="#22D3EE"/>
<path d="M54.1026 26.9047H53.9672V36.7483H54.1026V26.9047Z" fill="#22D3EE"/>
</g>
<mask id="mask4_14_833" style="mask-type:luminance" maskUnits="userSpaceOnUse" x="20" y="63" width="5" height="8">
<path d="M23.9681 63.6201H21.6727C21.1318 63.6201 20.6934 64.056 20.6934 64.5937V69.6002C20.6934 70.1379 21.1318 70.5737 21.6727 70.5737H23.9681C24.509 70.5737 24.9474 70.1379 24.9474 69.6002V64.5937C24.9474 64.056 24.509 63.6201 23.9681 63.6201Z" fill="white"/>
</mask>
<g mask="url(#mask4_14_833)">
<path d="M20.8094 63.6163H20.6971V70.57H20.8094V63.6163Z" fill="#34D399"/>
<path d="M20.9218 63.6162H20.8096V70.5699H20.9218V63.6162Z" fill="#34D39A"/>
<path d="M21.0301 63.6162H20.9178V70.5699H21.0301V63.6162Z" fill="#34D39B"/>
<path d="M21.1424 63.6162H21.0302V70.5699H21.1424V63.6162Z" fill="#33D39C"/>
<path d="M21.2546 63.6162H21.1423V70.5699H21.2546V63.6162Z" fill="#33D39D"/>
<path d="M21.3669 63.6162H21.2546V70.5699H21.3669V63.6162Z" fill="#33D39E"/>
<path d="M21.4793 63.6162H21.3671V70.5699H21.4793V63.6162Z" fill="#33D39F"/>
<path d="M21.5915 63.6162H21.4792V70.5699H21.5915V63.6162Z" fill="#33D3A0"/>
<path d="M21.7037 63.6162H21.5914V70.5699H21.7037V63.6162Z" fill="#32D3A1"/>
<path d="M21.816 63.6162H21.7037V70.5699H21.816V63.6162Z" fill="#32D3A2"/>
<path d="M21.9282 63.6162H21.8159V70.5699H21.9282V63.6162Z" fill="#32D3A3"/>
<path d="M22.0405 63.6162H21.9282V70.5699H22.0405V63.6162Z" fill="#32D3A4"/>
<path d="M22.1527 63.6162H22.0404V70.5699H22.1527V63.6162Z" fill="#32D3A5"/>
<path d="M22.2611 63.6162H22.1488V70.5699H22.2611V63.6162Z" fill="#32D3A6"/>
<path d="M22.3732 63.6162H22.261V70.5699H22.3732V63.6162Z" fill="#31D3A7"/>
<path d="M22.4855 63.6162H22.3733V70.5699H22.4855V63.6162Z" fill="#31D3A8"/>
<path d="M22.598 63.6162H22.4857V70.5699H22.598V63.6162Z" fill="#31D3A9"/>
<path d="M22.7102 63.6162H22.5979V70.5699H22.7102V63.6162Z" fill="#31D3AA"/>
<path d="M22.8225 63.6162H22.7102V70.5699H22.8225V63.6162Z" fill="#31D3AB"/>
<path d="M22.9346 63.6162H22.8224V70.5699H22.9346V63.6162Z" fill="#30D4AD"/>
<path d="M23.0469 63.6162H22.9347V70.5699H23.0469V63.6162Z" fill="#30D4AE"/>
<path d="M23.1591 63.6162H23.0469V70.5699H23.1591V63.6162Z" fill="#30D4AF"/>
<path d="M23.2713 63.6162H23.1591V70.5699H23.2713V63.6162Z" fill="#30D4B0"/>
<path d="M23.3836 63.6162H23.2714V70.5699H23.3836V63.6162Z" fill="#30D4B1"/>
<path d="M23.492 63.6162H23.3798V70.5699H23.492V63.6162Z" fill="#2FD4B2"/>
<path d="M23.6042 63.6162H23.4919V70.5699H23.6042V63.6162Z" fill="#2FD4B3"/>
<path d="M23.7165 63.6162H23.6042V70.5699H23.7165V63.6162Z" fill="#2FD4B4"/>
<path d="M23.8288 63.6162H23.7166V70.5699H23.8288V63.6162Z" fill="#2FD4B5"/>
<path d="M23.9411 63.6162H23.8289V70.5699H23.9411V63.6162Z" fill="#2FD4B6"/>
<path d="M24.0533 63.6162H23.941V70.5699H24.0533V63.6162Z" fill="#2FD4B7"/>
<path d="M24.1656 63.6162H24.0533V70.5699H24.1656V63.6162Z" fill="#2ED4B8"/>
<path d="M24.2778 63.6162H24.1655V70.5699H24.2778V63.6162Z" fill="#2ED4B9"/>
<path d="M24.3901 63.6162H24.2778V70.5699H24.3901V63.6162Z" fill="#2ED4BA"/>
<path d="M24.5023 63.6162H24.39V70.5699H24.5023V63.6162Z" fill="#2ED4BB"/>
<path d="M24.6146 63.6162H24.5023V70.5699H24.6146V63.6162Z" fill="#2ED4BC"/>
<path d="M24.7228 63.6162H24.6106V70.5699H24.7228V63.6162Z" fill="#2DD4BD"/>
<path d="M24.8352 63.6162H24.7229V70.5699H24.8352V63.6162Z" fill="#2DD4BE"/>
<path d="M24.9473 63.6162H24.8351V70.5699H24.9473V63.6162Z" fill="#2DD4BF"/>
</g>
<mask id="mask5_14_833" style="mask-type:luminance" maskUnits="userSpaceOnUse" x="73" y="63" width="5" height="8">
<path d="M76.805 63.6201H74.5096C73.9687 63.6201 73.5303 64.056 73.5303 64.5937V69.6002C73.5303 70.1379 73.9687 70.5737 74.5096 70.5737H76.805C77.3459 70.5737 77.7843 70.1379 77.7843 69.6002V64.5937C77.7843 64.056 77.3459 63.6201 76.805 63.6201Z" fill="white"/>
</mask>
<g mask="url(#mask5_14_833)">
<path d="M73.6464 63.6163H73.5342V70.57H73.6464V63.6163Z" fill="#34D399"/>
<path d="M73.7547 63.6162H73.6425V70.5699H73.7547V63.6162Z" fill="#34D39A"/>
<path d="M73.867 63.6162H73.7548V70.5699H73.867V63.6162Z" fill="#34D39B"/>
<path d="M73.9792 63.6162H73.8669V70.5699H73.9792V63.6162Z" fill="#33D39C"/>
<path d="M74.0915 63.6162H73.9792V70.5699H74.0915V63.6162Z" fill="#33D39D"/>
<path d="M74.2037 63.6162H74.0914V70.5699H74.2037V63.6162Z" fill="#33D39E"/>
<path d="M74.3161 63.6162H74.2039V70.5699H74.3161V63.6162Z" fill="#33D39F"/>
<path d="M74.4283 63.6162H74.316V70.5699H74.4283V63.6162Z" fill="#33D3A0"/>
<path d="M74.5406 63.6162H74.4283V70.5699H74.5406V63.6162Z" fill="#32D3A1"/>
<path d="M74.6528 63.6162H74.5405V70.5699H74.6528V63.6162Z" fill="#32D3A2"/>
<path d="M74.7651 63.6162H74.6528V70.5699H74.7651V63.6162Z" fill="#32D3A3"/>
<path d="M74.8773 63.6162H74.765V70.5699H74.8773V63.6162Z" fill="#32D3A4"/>
<path d="M74.9857 63.6162H74.8734V70.5699H74.9857V63.6162Z" fill="#32D3A5"/>
<path d="M75.0978 63.6162H74.9856V70.5699H75.0978V63.6162Z" fill="#32D3A6"/>
<path d="M75.2102 63.6162H75.0979V70.5699H75.2102V63.6162Z" fill="#31D3A7"/>
<path d="M75.3223 63.6162H75.2101V70.5699H75.3223V63.6162Z" fill="#31D3A8"/>
<path d="M75.4348 63.6162H75.3225V70.5699H75.4348V63.6162Z" fill="#31D3A9"/>
<path d="M75.5471 63.6162H75.4348V70.5699H75.5471V63.6162Z" fill="#31D3AA"/>
<path d="M75.6593 63.6162H75.547V70.5699H75.6593V63.6162Z" fill="#31D3AB"/>
<path d="M75.7716 63.6162H75.6593V70.5699H75.7716V63.6162Z" fill="#30D4AD"/>
<path d="M75.8837 63.6162H75.7715V70.5699H75.8837V63.6162Z" fill="#30D4AE"/>
<path d="M75.996 63.6162H75.8838V70.5699H75.996V63.6162Z" fill="#30D4AF"/>
<path d="M76.1082 63.6162H75.996V70.5699H76.1082V63.6162Z" fill="#30D4B0"/>
<path d="M76.2166 63.6162H76.1044V70.5699H76.2166V63.6162Z" fill="#30D4B1"/>
<path d="M76.3288 63.6162H76.2166V70.5699H76.3288V63.6162Z" fill="#2FD4B2"/>
<path d="M76.4411 63.6162H76.3289V70.5699H76.4411V63.6162Z" fill="#2FD4B3"/>
<path d="M76.5533 63.6162H76.441V70.5699H76.5533V63.6162Z" fill="#2FD4B4"/>
<path d="M76.6657 63.6162H76.5535V70.5699H76.6657V63.6162Z" fill="#2FD4B5"/>
<path d="M76.7779 63.6162H76.6656V70.5699H76.7779V63.6162Z" fill="#2FD4B6"/>
<path d="M76.8902 63.6162H76.778V70.5699H76.8902V63.6162Z" fill="#2FD4B7"/>
<path d="M77.0024 63.6162H76.8901V70.5699H77.0024V63.6162Z" fill="#2ED4B8"/>
<path d="M77.1147 63.6162H77.0024V70.5699H77.1147V63.6162Z" fill="#2ED4B9"/>
<path d="M77.2269 63.6162H77.1146V70.5699H77.2269V63.6162Z" fill="#2ED4BA"/>
<path d="M77.3392 63.6162H77.2269V70.5699H77.3392V63.6162Z" fill="#2ED4BB"/>
<path d="M77.4475 63.6162H77.3352V70.5699H77.4475V63.6162Z" fill="#2ED4BC"/>
<path d="M77.5598 63.6162H77.4475V70.5699H77.5598V63.6162Z" fill="#2DD4BD"/>
<path d="M77.6719 63.6162H77.5597V70.5699H77.6719V63.6162Z" fill="#2DD4BE"/>
<path d="M77.7842 63.6162H77.672V70.5699H77.7842V63.6162Z" fill="#2DD4BF"/>
</g>
<path d="M116.237 65.8328H123.421C123.595 65.8358 123.761 65.9071 123.882 66.0312C124.003 66.1552 124.07 66.3218 124.068 66.4947C124.069 66.5801 124.053 66.6649 124.021 66.7441C123.989 66.8234 123.942 66.8957 123.882 66.9568C123.822 67.0179 123.75 67.0666 123.671 67.1003C123.592 67.1339 123.507 67.1517 123.421 67.1527H120.538V75.7341C120.535 75.9185 120.459 76.0943 120.326 76.2233C120.193 76.3522 120.015 76.424 119.829 76.423C119.738 76.424 119.647 76.4069 119.562 76.3727C119.478 76.3385 119.401 76.2878 119.336 76.2237C119.271 76.1596 119.22 76.0833 119.185 75.9993C119.15 75.9152 119.132 75.8251 119.133 75.7341V67.1527H116.237C116.064 67.1487 115.899 67.0777 115.778 66.9549C115.656 66.832 115.588 66.6669 115.587 66.4947C115.588 66.322 115.656 66.1565 115.778 66.033C115.899 65.9096 116.064 65.8378 116.237 65.8328Z" fill="#666666"/>
<path d="M131.457 76.4229C131.287 76.4191 131.124 76.3502 131.003 76.2306C130.882 76.111 130.812 75.9498 130.807 75.7803V71.9552C130.807 71.0086 130.583 69.8695 129.042 69.8695C127.579 69.8695 126.809 71.0547 126.809 72.7941V75.7803C126.804 75.9498 126.733 76.111 126.612 76.2306C126.491 76.3502 126.329 76.4191 126.158 76.4229C125.987 76.4209 125.824 76.3526 125.703 76.2325C125.583 76.1124 125.514 75.9501 125.512 75.7803V65.9367C125.514 65.7669 125.583 65.6045 125.703 65.4844C125.824 65.3644 125.987 65.296 126.158 65.294C126.329 65.2979 126.491 65.3667 126.612 65.4863C126.733 65.6059 126.804 65.7671 126.809 65.9367V70.0042C127.063 69.5774 127.428 69.2267 127.866 68.989C128.304 68.7513 128.799 68.6354 129.298 68.6535C131.233 68.6535 132.119 70.1927 132.119 71.6396V75.7803C132.114 75.9518 132.043 76.1147 131.919 76.2346C131.796 76.3545 131.63 76.422 131.457 76.4229Z" fill="#666666"/>
<path d="M133.826 72.5825C133.826 70.2736 135.375 68.6535 137.492 68.6535C139.393 68.6535 140.829 69.9734 140.829 72.2977V72.3747C140.829 72.7595 140.6 72.898 140.236 72.898H135.154C135.259 74.5335 136.253 75.4032 137.627 75.4032C138.037 75.4054 138.44 75.3085 138.803 75.1207C139.166 74.933 139.477 74.66 139.71 74.3257C139.763 74.2654 139.827 74.2168 139.9 74.183C139.973 74.1492 140.052 74.1309 140.132 74.1294C140.246 74.1268 140.359 74.1576 140.457 74.2179C140.554 74.2781 140.631 74.3653 140.679 74.4687C140.727 74.5721 140.744 74.6872 140.727 74.7999C140.71 74.9126 140.661 75.0179 140.585 75.103C140.236 75.5548 139.785 75.9183 139.269 76.1637C138.752 76.4091 138.184 76.5296 137.612 76.5153C135.328 76.5153 133.826 75.0299 133.826 72.5825ZM139.528 71.8475C139.408 70.3467 138.471 69.7348 137.477 69.7348C136.315 69.7348 135.425 70.5045 135.197 71.8475H139.528Z" fill="#666666"/>
<path d="M147.556 65.2171C147.808 65.2181 148.05 65.3181 148.228 65.4955C148.407 65.6728 148.507 65.913 148.508 66.1637C148.507 66.287 148.482 66.4089 148.433 66.5225C148.385 66.636 148.315 66.7389 148.226 66.8254C148.138 66.9119 148.033 66.9802 147.918 67.0265C147.803 67.0727 147.68 67.096 147.556 67.095C147.433 67.095 147.312 67.0709 147.198 67.024C147.085 66.9772 146.982 66.9085 146.895 66.822C146.808 66.7355 146.74 66.6328 146.693 66.5198C146.646 66.4068 146.623 66.2858 146.623 66.1637C146.622 66.0406 146.645 65.9184 146.691 65.8041C146.737 65.6898 146.805 65.5857 146.892 65.4978C146.979 65.4098 147.082 65.3397 147.196 65.2915C147.31 65.2434 147.432 65.2181 147.556 65.2171ZM146.91 75.7803V69.4039C146.908 69.2311 146.974 69.0644 147.096 68.9404C147.217 68.8163 147.382 68.745 147.556 68.742C147.73 68.747 147.894 68.8188 148.016 68.9423C148.137 69.0658 148.205 69.2313 148.206 69.4039V75.7803C148.201 75.9499 148.131 76.1111 148.01 76.2306C147.889 76.3502 147.727 76.4191 147.556 76.423C147.385 76.421 147.222 76.3526 147.101 76.2325C146.98 76.1124 146.912 75.9501 146.91 75.7803Z" fill="#666666"/>
<path d="M151.106 68.742C151.271 68.747 151.427 68.8157 151.542 68.9335C151.657 69.0513 151.721 69.209 151.721 69.3731V70.1081C151.969 69.6545 152.339 69.2783 152.789 69.0214C153.24 68.7646 153.753 68.6372 154.272 68.6535C156.207 68.6535 157.094 70.1927 157.094 71.6396V75.7803C157.089 75.9518 157.017 76.1147 156.894 76.2346C156.77 76.3545 156.605 76.422 156.432 76.4229C156.261 76.4191 156.099 76.3502 155.978 76.2306C155.857 76.111 155.787 75.9498 155.782 75.7803V71.9552C155.782 71.0086 155.557 69.8695 154.017 69.8695C152.553 69.8695 151.783 71.0547 151.783 72.7941V75.7803C151.778 75.9498 151.708 76.111 151.587 76.2306C151.466 76.3502 151.303 76.4191 151.133 76.4229C150.962 76.4209 150.799 76.3526 150.678 76.2325C150.557 76.1124 150.488 75.9501 150.486 75.7803V69.3731C150.485 69.2911 150.5 69.2096 150.53 69.1333C150.56 69.057 150.606 68.9876 150.663 68.9289C150.721 68.8702 150.79 68.8234 150.866 68.7913C150.942 68.7592 151.023 68.7425 151.106 68.742Z" fill="#666666"/>
<path d="M162.474 68.6535C163.08 68.6326 163.68 68.7768 164.21 69.0705C164.739 69.3642 165.178 69.7962 165.478 70.3198C165.548 70.4151 165.589 70.5275 165.599 70.6449C165.609 70.7622 165.586 70.88 165.532 70.9852C165.479 71.0904 165.398 71.1791 165.298 71.2416C165.197 71.3041 165.082 71.3379 164.963 71.3395C164.846 71.3407 164.73 71.3141 164.625 71.2619C164.52 71.2097 164.429 71.1335 164.359 71.0394C163.833 70.1851 163.198 69.8233 162.424 69.8233C161.05 69.8233 160.101 70.9778 160.101 72.6287C160.101 74.2795 161.034 75.3609 162.424 75.3609C163.33 75.3609 163.934 74.8953 164.46 73.9794C164.516 73.8831 164.595 73.8023 164.69 73.7445C164.786 73.6867 164.894 73.6536 165.006 73.6484C165.123 73.6421 165.239 73.669 165.341 73.7261C165.443 73.7831 165.527 73.8679 165.582 73.9706C165.637 74.0732 165.662 74.1893 165.653 74.3054C165.644 74.4215 165.602 74.5326 165.532 74.6259C165.247 75.2043 164.802 75.6896 164.248 76.0244C163.695 76.3592 163.056 76.5296 162.408 76.5153C160.264 76.5153 158.743 75.0299 158.743 72.6287C158.793 70.289 160.33 68.6535 162.474 68.6535Z" fill="#666666"/>
<path d="M166.871 72.5825C166.871 70.2736 168.42 68.6535 170.537 68.6535C172.438 68.6535 173.874 69.9734 173.874 72.2977V72.3747C173.874 72.7595 173.645 72.898 173.282 72.898H168.199C168.304 74.5335 169.298 75.4032 170.673 75.4032C171.082 75.4054 171.485 75.3085 171.848 75.1207C172.211 74.933 172.522 74.66 172.755 74.3257C172.808 74.2654 172.872 74.2168 172.945 74.183C173.018 74.1492 173.097 74.1309 173.177 74.1294C173.295 74.1213 173.412 74.1485 173.514 74.2075C173.616 74.2666 173.698 74.3547 173.749 74.4605C173.8 74.5663 173.817 74.6849 173.8 74.8008C173.782 74.9168 173.73 75.0247 173.649 75.1107C173.301 75.5625 172.85 75.926 172.333 76.1714C171.817 76.4169 171.249 76.5373 170.676 76.523C168.377 76.5153 166.871 75.0299 166.871 72.5825ZM172.573 71.8475C172.453 70.3467 171.516 69.7348 170.522 69.7348C169.36 69.7348 168.47 70.5045 168.242 71.8475H172.573Z" fill="#666666"/>
<path d="M176.309 68.742C176.474 68.747 176.63 68.8157 176.745 68.9335C176.86 69.0513 176.924 69.209 176.924 69.3731V70.1081C177.172 69.6542 177.541 69.2778 177.992 69.0209C178.442 68.764 178.956 68.6368 179.475 68.6535C181.41 68.6535 182.297 70.1928 182.297 71.6397V75.7803C182.292 75.9518 182.22 76.1147 182.096 76.2346C181.973 76.3545 181.808 76.422 181.635 76.423C181.464 76.4191 181.302 76.3502 181.181 76.2307C181.06 76.1111 180.99 75.9499 180.985 75.7803V71.9552C180.985 71.0086 180.76 69.8695 179.22 69.8695C177.756 69.8695 176.986 71.0547 176.986 72.7941V75.7803C176.981 75.9499 176.911 76.1111 176.79 76.2307C176.669 76.3502 176.506 76.4191 176.336 76.423C176.165 76.421 176.002 76.3526 175.881 76.2325C175.76 76.1124 175.691 75.9501 175.689 75.7803V69.3731C175.688 69.2911 175.703 69.2096 175.733 69.1333C175.763 69.0571 175.809 68.9876 175.866 68.9289C175.924 68.8702 175.993 68.8234 176.069 68.7914C176.145 68.7593 176.226 68.7425 176.309 68.742Z" fill="#666666"/>
<path d="M183.385 69.4039C183.386 69.2525 183.447 69.1076 183.555 69.0009C183.663 68.8942 183.809 68.8343 183.961 68.8343H184.736V66.6447C184.737 66.4736 184.805 66.3097 184.927 66.1887C185.049 66.0677 185.214 65.9992 185.386 65.9982C185.472 65.9972 185.558 66.0132 185.638 66.0451C185.718 66.0771 185.791 66.1245 185.852 66.1846C185.914 66.2447 185.963 66.3163 185.996 66.3952C186.03 66.4742 186.047 66.559 186.048 66.6447V68.8343H187.906C188.055 68.8373 188.198 68.8989 188.302 69.0054C188.406 69.112 188.464 69.2552 188.463 69.4039C188.461 69.5502 188.402 69.69 188.298 69.7935C188.194 69.897 188.053 69.956 187.906 69.958H186.048V74.0525C186.048 74.8221 186.261 75.3608 187.271 75.3608C187.536 75.3583 187.798 75.3074 188.045 75.2108C188.128 75.1705 188.22 75.152 188.312 75.1573C188.404 75.1626 188.494 75.1913 188.571 75.2408C188.649 75.2903 188.713 75.3588 188.756 75.4398C188.8 75.5208 188.821 75.6116 188.819 75.7033C188.822 75.8061 188.795 75.9074 188.741 75.9954C188.688 76.0833 188.61 76.1542 188.517 76.1997C188.107 76.4108 187.651 76.5191 187.19 76.5153C185.363 76.5153 184.712 75.4955 184.712 74.1756V69.9426H183.938C183.795 69.938 183.658 69.8801 183.556 69.7803C183.453 69.6806 183.392 69.5463 183.385 69.4039Z" fill="#666666"/>
<path d="M190.875 65.2171C191.127 65.2191 191.368 65.3194 191.546 65.4965C191.724 65.6736 191.825 65.9133 191.827 66.1637C191.824 66.4124 191.722 66.6499 191.544 66.8243C191.365 66.9987 191.125 67.096 190.875 67.095C190.626 67.095 190.388 66.9969 190.212 66.8222C190.037 66.6476 189.938 66.4107 189.938 66.1637C189.937 66.0404 189.96 65.9181 190.007 65.8038C190.053 65.6895 190.122 65.5854 190.209 65.4975C190.296 65.4096 190.4 65.3396 190.514 65.2915C190.628 65.2434 190.751 65.2181 190.875 65.2171ZM190.224 75.7803V69.4039C190.223 69.318 190.239 69.2327 190.272 69.153C190.304 69.0732 190.351 69.0005 190.412 68.939C190.472 68.8776 190.544 68.8285 190.624 68.7947C190.703 68.7609 190.788 68.743 190.875 68.742C191.048 68.747 191.213 68.8188 191.334 68.9423C191.456 69.0658 191.524 69.2313 191.525 69.4039V75.7803C191.52 75.9499 191.45 76.1111 191.329 76.2306C191.208 76.3502 191.045 76.4191 190.875 76.423C190.703 76.422 190.539 76.354 190.417 76.2338C190.296 76.1136 190.226 75.9508 190.224 75.7803Z" fill="#666666"/>
<path d="M195.601 75.8226L193.081 69.6425C193.041 69.5424 193.026 69.434 193.039 69.327C193.051 69.22 193.089 69.1175 193.15 69.0286C193.211 68.9397 193.293 68.8671 193.389 68.8171C193.485 68.7671 193.592 68.7413 193.7 68.742C193.839 68.743 193.975 68.7849 194.09 68.8623C194.205 68.9396 194.294 69.0491 194.347 69.1768L196.569 74.9491L198.787 69.1768C198.829 69.0536 198.908 68.9461 199.013 68.8685C199.118 68.7908 199.244 68.7467 199.375 68.742C199.478 68.7407 199.58 68.765 199.672 68.8125C199.764 68.86 199.842 68.9293 199.901 69.0142C199.959 69.0992 199.995 69.1971 200.006 69.2993C200.017 69.4016 200.002 69.5049 199.963 69.6002L197.428 75.8226C197.353 75.9999 197.227 76.1514 197.066 76.2581C196.905 76.3649 196.716 76.4222 196.522 76.423C196.326 76.4232 196.135 76.3665 195.971 76.2599C195.807 76.1532 195.679 76.0012 195.601 75.8226Z" fill="#666666"/>
<path d="M200.838 72.5825C200.838 70.2736 202.386 68.6535 204.504 68.6535C206.404 68.6535 207.84 69.9734 207.84 72.2977V72.3747C207.84 72.7595 207.612 72.898 207.252 72.898H202.166C202.27 74.5335 203.269 75.4032 204.639 75.4032C205.048 75.4058 205.452 75.3089 205.815 75.1211C206.178 74.9334 206.489 74.6603 206.722 74.3257C206.775 74.2657 206.841 74.2173 206.914 74.1835C206.987 74.1498 207.067 74.1313 207.148 74.1294C207.262 74.1268 207.375 74.1576 207.472 74.2179C207.569 74.2781 207.647 74.3653 207.695 74.4687C207.743 74.5721 207.76 74.6872 207.743 74.7999C207.726 74.9126 207.677 75.0179 207.6 75.103C207.251 75.5541 206.8 75.9171 206.284 76.1624C205.767 76.4078 205.2 76.5287 204.628 76.5153C202.348 76.5153 200.838 75.0299 200.838 72.5825ZM206.544 71.8475C206.42 70.3467 205.487 69.7348 204.488 69.7348C203.327 69.7348 202.437 70.5045 202.212 71.8475H206.544Z" fill="#666666"/>
<path d="M213.875 68.742C214.017 68.7408 214.156 68.7835 214.272 68.8641C214.389 68.9448 214.477 69.0594 214.525 69.1922L216.685 74.8952L218.919 69.1922C218.963 69.0663 219.045 68.9565 219.152 68.8763C219.26 68.7962 219.388 68.7495 219.523 68.742C219.62 68.7333 219.718 68.7489 219.809 68.7873C219.899 68.8257 219.978 68.8857 220.039 68.962C220.1 69.0383 220.141 69.1285 220.158 69.2244C220.175 69.3203 220.168 69.419 220.138 69.5116L216.186 79.2937C216.134 79.4093 216.049 79.5073 215.942 79.5757C215.834 79.6441 215.709 79.6798 215.582 79.6785C215.48 79.6778 215.38 79.6524 215.29 79.6043C215.2 79.5562 215.124 79.4869 215.067 79.4026C215.011 79.3183 214.976 79.2214 214.966 79.1206C214.956 79.0198 214.97 78.918 215.009 78.8242L216.004 76.4229L213.244 69.6578C213.206 69.5558 213.194 69.4464 213.207 69.3386C213.221 69.2308 213.26 69.1278 213.322 69.0381C213.384 68.9485 213.466 68.8748 213.562 68.8233C213.659 68.7718 213.766 68.7439 213.875 68.742Z" fill="#666666"/>
<path d="M220.994 72.5825C220.994 70.2736 222.561 68.6535 224.795 68.6535C227.028 68.6535 228.615 70.2736 228.615 72.5825C228.615 74.8914 227.028 76.5153 224.795 76.5153C222.561 76.5153 220.994 74.8952 220.994 72.5825ZM224.795 75.3609C226.246 75.3609 227.272 74.2064 227.272 72.5825C227.272 70.9586 226.246 69.8079 224.795 69.8079C223.343 69.8079 222.337 70.9624 222.337 72.5825C222.337 74.2026 223.347 75.3609 224.795 75.3609Z" fill="#666666"/>
<path d="M230.311 73.7677V69.4039C230.312 69.2293 230.382 69.0621 230.505 68.9383C230.629 68.8145 230.797 68.744 230.973 68.742C231.146 68.747 231.311 68.8188 231.432 68.9423C231.554 69.0658 231.622 69.2313 231.623 69.4039V73.456C231.623 74.2795 231.836 75.2993 233.33 75.2993C234.824 75.2993 235.486 74.0525 235.486 72.3901V69.4039C235.487 69.2313 235.555 69.0658 235.676 68.9423C235.798 68.8188 235.963 68.747 236.136 68.742C236.312 68.744 236.48 68.8145 236.603 68.9383C236.727 69.0621 236.797 69.2293 236.798 69.4039V75.8111C236.793 75.9744 236.725 76.1295 236.607 76.2436C236.489 76.3577 236.332 76.422 236.167 76.423C236.004 76.42 235.849 76.3547 235.734 76.2407C235.618 76.1267 235.552 75.9728 235.548 75.8111V75.1107C235.312 75.552 234.956 75.9185 234.521 76.1683C234.086 76.418 233.588 76.5409 233.086 76.523C232.717 76.5406 232.349 76.4813 232.004 76.3491C231.66 76.2169 231.347 76.0146 231.086 75.7553C230.824 75.4959 230.62 75.1851 230.487 74.8428C230.354 74.5006 230.293 74.1344 230.311 73.7677Z" fill="#666666"/>
<path d="M242.852 72.6594C242.852 70.3505 244.211 68.6535 246.336 68.6535C246.85 68.6361 247.36 68.7497 247.817 68.9834C248.274 69.2171 248.664 69.5632 248.949 69.9888V65.9367C248.951 65.7662 249.02 65.6033 249.142 65.4831C249.263 65.3629 249.428 65.295 249.599 65.294C249.77 65.296 249.933 65.3644 250.054 65.4844C250.175 65.6045 250.243 65.7669 250.245 65.9367V75.8111C250.244 75.9737 250.179 76.1293 250.063 76.244C249.947 76.3586 249.79 76.4229 249.626 76.4229C249.463 76.4219 249.306 76.3573 249.191 76.2428C249.075 76.1284 249.009 75.9734 249.007 75.8111V75.0876C248.728 75.5392 248.334 75.9093 247.865 76.1601C247.396 76.4109 246.868 76.5335 246.336 76.5153C244.226 76.5153 242.852 74.9106 242.852 72.6594ZM246.549 75.3531C248.012 75.3531 248.964 74.1987 248.964 72.5748C248.964 71.0355 247.997 69.8002 246.549 69.8002C245.101 69.8002 244.195 70.9855 244.195 72.5748C244.195 74.1641 245.07 75.3608 246.549 75.3608V75.3531Z" fill="#666666"/>
<path d="M252.038 72.5825C252.038 70.2736 253.586 68.6535 255.707 68.6535C257.608 68.6535 259.04 69.9734 259.04 72.2977V72.3747C259.04 72.7595 258.816 72.898 258.452 72.898H253.365C253.474 74.5335 254.469 75.4032 255.843 75.4032C256.252 75.4054 256.655 75.3085 257.018 75.1207C257.381 74.933 257.692 74.66 257.925 74.3257C257.978 74.2654 258.043 74.2168 258.115 74.183C258.188 74.1492 258.267 74.1309 258.347 74.1294C258.464 74.1238 258.58 74.1528 258.68 74.2128C258.78 74.2728 258.86 74.3611 258.909 74.4663C258.958 74.5716 258.975 74.6891 258.957 74.8038C258.939 74.9186 258.887 75.0254 258.808 75.1107C258.459 75.5625 258.008 75.926 257.492 76.1714C256.975 76.4169 256.407 76.5373 255.835 76.523C253.547 76.5153 252.038 75.0299 252.038 72.5825ZM257.743 71.8475C257.623 70.3467 256.687 69.7348 255.692 69.7348C254.531 69.7348 253.64 70.5045 253.412 71.8475H257.743Z" fill="#666666"/>
<path d="M263.383 76.5153C262.416 76.5376 261.463 76.2824 260.639 75.7803C260.546 75.7243 260.467 75.6475 260.409 75.556C260.352 75.4645 260.316 75.3607 260.306 75.2531C260.307 75.089 260.372 74.9318 260.488 74.8147C260.603 74.6976 260.76 74.6298 260.925 74.6259C261.063 74.6252 261.199 74.6668 261.312 74.7452C261.892 75.1405 262.572 75.3634 263.275 75.3878C264.649 75.3878 265.009 74.8029 265.009 74.2333C265.009 73.6638 264.556 73.3944 263.712 73.2136L262.624 72.975C261.676 72.7633 260.495 72.2823 260.495 70.8431C260.495 69.7926 261.343 68.6535 263.205 68.6535C264.097 68.64 264.97 68.9096 265.698 69.4231C265.785 69.4814 265.858 69.559 265.91 69.6498C265.963 69.7405 265.993 69.842 266 69.9465C266.001 70.0291 265.986 70.1112 265.955 70.1877C265.923 70.2641 265.876 70.3334 265.817 70.3911C265.757 70.4488 265.686 70.4937 265.609 70.5232C265.531 70.5526 265.448 70.5659 265.365 70.5622C265.228 70.5527 265.096 70.5118 264.978 70.4429C264.466 70.0265 263.828 69.7934 263.166 69.781C262.005 69.781 261.761 70.3813 261.761 70.7738C261.761 71.4011 262.148 71.6435 262.895 71.809L264.146 72.0938C265.458 72.3939 266.306 72.9173 266.306 74.1487C266.306 75.3801 265.33 76.5153 263.383 76.5153Z" fill="#666666"/>
<path d="M267.521 72.5825C267.521 70.2736 269.069 68.6535 271.191 68.6535C273.091 68.6535 274.523 69.9734 274.523 72.2977V72.3747C274.523 72.7595 274.299 72.898 273.935 72.898H268.872C268.977 74.5335 269.971 75.4032 271.346 75.4032C271.755 75.4054 272.158 75.3085 272.521 75.1207C272.884 74.933 273.195 74.66 273.428 74.3257C273.481 74.2654 273.545 74.2168 273.618 74.183C273.691 74.1492 273.77 74.1309 273.85 74.1294C273.965 74.1277 274.078 74.1596 274.175 74.2212C274.272 74.2827 274.349 74.3711 274.396 74.4756C274.443 74.58 274.458 74.6958 274.439 74.8087C274.421 74.9216 274.369 75.0266 274.291 75.1107C273.943 75.5625 273.492 75.926 272.975 76.1714C272.459 76.4169 271.891 76.5373 271.318 76.523C269.031 76.5153 267.521 75.0299 267.521 72.5825ZM273.227 71.8475C273.107 70.3467 272.17 69.7348 271.175 69.7348C270.014 69.7348 269.124 70.5045 268.895 71.8475H273.227Z" fill="#666666"/>
<path d="M276.343 75.7803V69.3731C276.341 69.2914 276.356 69.2102 276.386 69.1342C276.416 69.0582 276.461 68.9889 276.518 68.9302C276.575 68.8716 276.644 68.8248 276.719 68.7925C276.795 68.7602 276.876 68.743 276.958 68.742C277.124 68.746 277.281 68.8143 277.397 68.9322C277.513 69.0501 277.577 69.2083 277.577 69.3731V70.4852C278.015 69.4039 278.785 68.7728 279.826 68.7728H279.946C280.03 68.7706 280.112 68.7854 280.19 68.8166C280.267 68.8477 280.337 68.8944 280.395 68.9536C280.453 69.0129 280.498 69.0835 280.528 69.161C280.557 69.2385 280.57 69.3212 280.566 69.4039C280.565 69.5703 280.498 69.7296 280.38 69.8477C280.262 69.9657 280.102 70.033 279.935 70.035H279.842C278.53 70.035 277.639 71.1433 277.639 73.1135V75.7841C277.634 75.9537 277.564 76.1149 277.443 76.2345C277.322 76.3541 277.16 76.4229 276.989 76.4268C276.818 76.4248 276.654 76.3559 276.533 76.235C276.412 76.114 276.344 75.9508 276.343 75.7803Z" fill="#666666"/>
<path d="M284.104 75.8226L281.584 69.6425C281.544 69.5424 281.529 69.434 281.541 69.327C281.553 69.22 281.591 69.1175 281.653 69.0286C281.714 68.9397 281.796 68.8671 281.892 68.8171C281.988 68.7671 282.095 68.7413 282.203 68.742C282.342 68.743 282.477 68.7849 282.592 68.8623C282.707 68.9396 282.797 69.0491 282.849 69.1768L285.071 74.9491L287.289 69.1768C287.332 69.0536 287.41 68.9461 287.515 68.8685C287.621 68.7908 287.747 68.7467 287.878 68.742C287.981 68.7407 288.083 68.765 288.175 68.8125C288.267 68.86 288.345 68.9293 288.403 69.0142C288.461 69.0992 288.498 69.1971 288.509 69.2993C288.52 69.4016 288.505 69.5049 288.466 69.6002L285.931 75.8226C285.855 75.9999 285.73 76.1514 285.569 76.2581C285.407 76.3649 285.218 76.4222 285.025 76.423C284.829 76.4232 284.638 76.3665 284.474 76.2599C284.31 76.1532 284.181 76.0012 284.104 75.8226Z" fill="#666666"/>
<path d="M289.341 72.5825C289.341 70.2736 290.889 68.6535 293.007 68.6535C294.911 68.6535 296.343 69.9734 296.343 72.2977V72.3747C296.343 72.7595 296.115 72.898 295.755 72.898H290.669C290.773 74.5335 291.772 75.4032 293.146 75.4032C293.555 75.4055 293.957 75.3085 294.32 75.1207C294.682 74.9329 294.993 74.66 295.225 74.3257C295.278 74.2657 295.344 74.2173 295.417 74.1835C295.49 74.1498 295.57 74.1313 295.65 74.1294C295.765 74.1268 295.878 74.1576 295.975 74.2179C296.072 74.2781 296.15 74.3653 296.198 74.4687C296.246 74.5721 296.263 74.6872 296.246 74.7999C296.229 74.9126 296.179 75.0179 296.103 75.103C295.755 75.5546 295.304 75.9179 294.787 76.1633C294.27 76.4087 293.703 76.5293 293.13 76.5153C290.851 76.5153 289.341 75.0299 289.341 72.5825ZM295.047 71.8475C294.923 70.3467 293.99 69.7348 292.991 69.7348C291.83 69.7348 290.94 70.5045 290.715 71.8475H295.047Z" fill="#666666"/>
</g>
<defs>
<clipPath id="clip0_14_833">
<rect width="316.108" height="79.3878" fill="white" transform="translate(0 0.306108)"/>
</clipPath>
</defs>
</svg>
