<svg width="201" height="68" viewBox="0 0 201 68" fill="none" xmlns="http://www.w3.org/2000/svg">
<g clip-path="url(#clip0_14_7374)">
<path d="M90.4117 40.0672V31.142C90.4099 30.9857 90.4394 30.8306 90.4984 30.6859C90.5574 30.5411 90.6447 30.4096 90.7552 30.2991C90.8658 30.1886 90.9973 30.1012 91.142 30.0422C91.2868 29.9832 91.4419 29.9538 91.5982 29.9556C91.7551 29.9538 91.9108 29.9832 92.0563 30.042C92.2018 30.1008 92.3342 30.188 92.4458 30.2983C92.5573 30.4087 92.6459 30.5401 92.7064 30.6849C92.7668 30.8297 92.798 30.9851 92.798 31.142V34.8314L96.834 30.4788C96.9448 30.3278 97.0872 30.2029 97.2512 30.1125C97.4153 30.0222 97.597 29.9686 97.7838 29.9556C97.9932 29.9411 98.2019 29.9916 98.3816 30.1001C98.5612 30.2086 98.703 30.37 98.7876 30.5621C98.8721 30.7542 98.8954 30.9677 98.8541 31.1735C98.8128 31.3792 98.7091 31.5673 98.557 31.7119L95.6308 34.7514L99.0003 39.4173C99.1227 39.5958 99.1934 39.8046 99.2045 40.0208C99.2156 40.2369 99.1667 40.4519 99.0632 40.642C98.9597 40.832 98.8057 40.9898 98.6181 41.0978C98.4306 41.2057 98.2168 41.2597 98.0004 41.2537C97.8039 41.254 97.6101 41.2066 97.436 41.1154C97.2618 41.0243 97.1124 40.8921 97.0006 40.7304L93.9478 36.3978L92.7913 37.6643V40.0705C92.7913 40.3852 92.6663 40.687 92.4438 40.9095C92.2213 41.132 91.9195 41.257 91.6048 41.257C91.4478 41.2593 91.2919 41.23 91.1464 41.1711C91.0008 41.1121 90.8686 41.0246 90.7574 40.9137C90.6462 40.8028 90.5583 40.6708 90.4989 40.5254C90.4396 40.38 90.4099 40.2242 90.4117 40.0672Z" fill="#31D3A9"/>
<path d="M101.936 30.0689H105.686C108.122 30.0689 109.752 31.7353 109.752 33.7349C109.752 35.9179 108.085 37.7343 105.639 37.7343H103.123V40.0906C103.123 40.4052 102.998 40.707 102.775 40.9295C102.553 41.152 102.251 41.277 101.936 41.277C101.779 41.2801 101.622 41.2517 101.476 41.1934C101.33 41.1351 101.197 41.0481 101.085 40.9375C100.973 40.8269 100.884 40.695 100.823 40.5496C100.763 40.4041 100.732 40.248 100.733 40.0906V31.292C100.711 31.1278 100.726 30.9606 100.778 30.8033C100.83 30.646 100.918 30.5028 101.034 30.3846C101.15 30.2665 101.292 30.1766 101.449 30.1218C101.605 30.0671 101.772 30.049 101.936 30.0689ZM105.306 35.7346C105.572 35.7501 105.839 35.7098 106.088 35.6164C106.338 35.523 106.565 35.3786 106.756 35.1923C106.947 35.0059 107.097 34.7819 107.196 34.5344C107.295 34.2869 107.341 34.0214 107.332 33.7549C107.332 32.7551 106.526 32.0019 105.306 32.0019H103.123V35.7346H105.306Z" fill="#31D3A9"/>
<path d="M119.247 41.3335C117.76 41.3643 116.302 40.9207 115.084 40.067C114.93 39.9679 114.803 39.8319 114.714 39.6713C114.626 39.5107 114.579 39.3305 114.578 39.1472C114.575 39.0057 114.6 38.8651 114.651 38.7334C114.703 38.6018 114.781 38.4817 114.879 38.3803C114.978 38.2789 115.096 38.1981 115.226 38.1427C115.356 38.0872 115.496 38.0582 115.637 38.0574C115.875 38.0585 116.107 38.1304 116.304 38.264C117.123 38.9101 118.125 39.281 119.167 39.3238C120.557 39.3238 121 38.6273 121 37.9607C121 37.2175 120.417 36.9609 119.334 36.6976L117.894 36.3643C116.517 36.031 114.894 35.2878 114.894 33.1548C114.894 31.5718 116.207 29.8954 118.944 29.8954C120.227 29.8817 121.484 30.2571 122.55 30.9719C122.711 31.069 122.846 31.2055 122.94 31.3688C123.035 31.532 123.086 31.7165 123.09 31.9051C123.096 32.0481 123.073 32.191 123.023 32.325C122.972 32.459 122.895 32.5814 122.796 32.6848C122.697 32.7882 122.578 32.8705 122.446 32.9267C122.315 32.9828 122.173 33.0117 122.03 33.0116C121.806 33.0184 121.586 32.958 121.397 32.8383C120.661 32.2827 119.772 31.9673 118.85 31.935C117.584 31.935 117.284 32.585 117.284 33.0116C117.284 33.7381 117.804 34.0114 118.737 34.2447L120.367 34.6579C122.25 35.1312 123.39 36.0344 123.39 37.7574C123.406 39.6871 121.983 41.3335 119.247 41.3335Z" fill="#34C1F6"/>
<path d="M128.595 32.9149C129.209 32.8937 129.818 33.0208 130.371 33.2854C130.925 33.5499 131.406 33.9442 131.775 34.4346C132.188 35.0178 131.951 36.1277 130.985 36.1277C130.81 36.1311 130.636 36.0944 130.477 36.0205C130.318 35.9466 130.179 35.8373 130.068 35.7011C129.625 35.1145 129.199 34.8612 128.629 34.8612C127.506 34.8612 126.809 35.7944 126.809 37.1708C126.809 38.5473 127.519 39.4504 128.642 39.4504C129.309 39.4504 129.765 39.1472 130.208 38.4206C130.286 38.2749 130.402 38.1536 130.545 38.07C130.687 37.9865 130.85 37.944 131.015 37.9474C131.951 37.9474 132.348 38.8339 131.855 39.6138C131.519 40.1695 131.038 40.6236 130.464 40.9276C129.89 41.2316 129.244 41.3742 128.595 41.3401C126.079 41.3401 124.499 39.7571 124.499 37.1775C124.499 34.6879 126.159 32.9149 128.595 32.9149Z" fill="#34C1F6"/>
<path d="M139.87 41.2538C139.72 41.2543 139.572 41.2251 139.433 41.168C139.295 41.1108 139.169 41.0269 139.063 40.921C138.957 40.815 138.873 40.6892 138.816 40.5507C138.759 40.4122 138.73 40.2638 138.73 40.114V36.3946C138.73 35.6847 138.574 34.8316 137.397 34.8316C136.337 34.8316 135.768 35.6848 135.768 36.8879V40.114C135.768 40.2638 135.739 40.4122 135.682 40.5507C135.625 40.6892 135.541 40.815 135.435 40.921C135.329 41.0269 135.203 41.1108 135.064 41.168C134.926 41.2251 134.778 41.2543 134.628 41.2538C134.326 41.2521 134.037 41.1314 133.824 40.918C133.61 40.7047 133.49 40.4158 133.488 40.114V30.6223C133.49 30.3205 133.61 30.0316 133.824 29.8182C134.037 29.6048 134.326 29.4842 134.628 29.4824C134.778 29.482 134.926 29.5112 135.064 29.5683C135.203 29.6254 135.329 29.7094 135.435 29.8153C135.541 29.9212 135.625 30.0471 135.682 30.1856C135.739 30.324 135.768 30.4724 135.768 30.6223V34.0217C136.042 33.6606 136.399 33.3714 136.81 33.1787C137.22 32.986 137.671 32.8956 138.124 32.9152C140.103 32.9152 141.02 34.4516 141.02 35.9147V40.1207C141.016 40.423 140.894 40.7117 140.678 40.9239C140.463 41.1362 140.173 41.2547 139.87 41.2538Z" fill="#34C1F6"/>
<path d="M142.36 37.1209C142.36 34.6513 144.026 32.9116 146.569 32.9116C149.112 32.9116 150.808 34.6547 150.808 37.1209C150.808 39.5872 149.115 41.3302 146.569 41.3302C144.023 41.3302 142.36 39.6072 142.36 37.1209ZM146.569 39.4306C147.802 39.4306 148.499 38.4507 148.499 37.1209C148.499 35.7911 147.802 34.788 146.569 34.788C145.336 34.788 144.673 35.7545 144.673 37.1209C144.673 38.4874 145.366 39.4339 146.569 39.4339V39.4306Z" fill="#34C1F6"/>
<path d="M153.388 29.482C153.538 29.4807 153.687 29.5092 153.827 29.5659C153.966 29.6226 154.092 29.7065 154.199 29.8125C154.306 29.9185 154.39 30.0446 154.448 30.1836C154.505 30.3225 154.535 30.4714 154.534 30.6218V40.1202C154.535 40.27 154.506 40.4184 154.448 40.5569C154.391 40.6954 154.307 40.8213 154.201 40.9272C154.096 41.0331 153.97 41.117 153.831 41.1742C153.693 41.2313 153.544 41.2605 153.395 41.2601C153.092 41.2601 152.801 41.1402 152.586 40.9266C152.371 40.713 152.25 40.4231 152.248 40.1202V30.6285C152.248 30.3256 152.368 30.035 152.581 29.8201C152.795 29.6053 153.085 29.4837 153.388 29.482Z" fill="#34C1F6"/>
<path d="M156.021 39.0073C156.021 37.5042 157.237 36.791 158.584 36.4744L161.067 35.9045C160.987 35.2079 160.56 34.7813 159.643 34.7813C158.727 34.7813 158.14 35.2712 157.524 35.6512C157.342 35.763 157.134 35.8241 156.921 35.8278C156.74 35.8195 156.566 35.7561 156.422 35.6461C156.279 35.5361 156.172 35.3847 156.117 35.2124C156.062 35.04 156.061 34.855 156.114 34.682C156.167 34.509 156.272 34.3564 156.414 34.2447C157.365 33.399 158.591 32.9256 159.863 32.9116C162.38 32.9116 163.296 34.448 163.296 36.0778V40.3004C163.283 40.5645 163.166 40.8127 162.971 40.9907C162.775 41.1687 162.517 41.262 162.253 41.2502C162.122 41.2593 161.99 41.2416 161.865 41.1983C161.741 41.1549 161.626 41.0868 161.529 40.998C161.431 40.9093 161.353 40.8018 161.298 40.6819C161.243 40.562 161.213 40.4322 161.21 40.3004V39.9671C160.938 40.3989 160.555 40.7501 160.101 40.9845C159.648 41.2189 159.14 41.3279 158.63 41.3002C156.907 41.3336 156.021 40.2404 156.021 39.0073ZM159.247 39.5772C159.498 39.573 159.745 39.5185 159.974 39.4167C160.204 39.315 160.41 39.1682 160.581 38.985C160.753 38.8019 160.885 38.5861 160.972 38.3506C161.058 38.1151 161.096 37.8647 161.083 37.6142V37.4575L159.247 37.8841C158.614 38.0241 158.297 38.3407 158.297 38.7706C158.297 39.2905 158.597 39.5772 159.247 39.5772Z" fill="#34C1F6"/>
<path d="M165.116 40.1204V34.0613C165.119 33.7767 165.233 33.5044 165.434 33.303C165.635 33.1017 165.908 32.9875 166.192 32.9849C166.478 32.9849 166.752 33.0983 166.954 33.3002C167.156 33.502 167.269 33.7758 167.269 34.0613V34.6313C167.726 33.6814 168.469 33.0482 169.372 33.0482H169.465C169.592 33.0477 169.717 33.0725 169.833 33.1212C169.95 33.1698 170.055 33.2412 170.144 33.3313C170.232 33.4213 170.302 33.5282 170.349 33.6456C170.395 33.7629 170.418 33.8885 170.415 34.0147C170.425 34.1506 170.406 34.2869 170.36 34.415C170.314 34.5432 170.241 34.6602 170.147 34.7585C170.053 34.8569 169.939 34.9343 169.813 34.9859C169.687 35.0374 169.551 35.062 169.415 35.0579H169.335C168.149 35.0579 167.389 36.0577 167.389 37.8107V40.1204C167.39 40.27 167.361 40.4183 167.304 40.5568C167.248 40.6953 167.164 40.8211 167.058 40.9271C166.953 41.0331 166.827 41.1171 166.689 41.1743C166.55 41.2314 166.402 41.2606 166.252 41.2602C165.951 41.2576 165.663 41.1365 165.451 40.9232C165.238 40.71 165.118 40.4215 165.116 40.1204Z" fill="#34C1F6"/>
<path d="M174.448 41.3336C173.406 41.3517 172.376 41.1125 171.448 40.637C171.291 40.5587 171.158 40.4392 171.064 40.2913C170.969 40.1434 170.917 39.9726 170.912 39.7972C170.91 39.6755 170.932 39.5548 170.978 39.4419C171.023 39.3289 171.09 39.2261 171.175 39.1393C171.26 39.0525 171.362 38.9835 171.474 38.9362C171.586 38.889 171.707 38.8644 171.828 38.864C172.001 38.8702 172.169 38.9194 172.318 39.0073C172.925 39.3679 173.613 39.5686 174.318 39.5906C175.251 39.5906 175.538 39.1973 175.538 38.8173C175.538 38.4374 175.238 38.2308 174.588 38.0875L173.448 37.8342C172.371 37.5975 171.155 36.9976 171.155 35.3979C171.155 34.2114 172.182 32.915 174.288 32.915C175.165 32.8989 176.032 33.0944 176.817 33.4849C176.988 33.5533 177.135 33.6708 177.24 33.8227C177.344 33.9745 177.401 34.1538 177.404 34.3381C177.408 34.4603 177.387 34.5821 177.343 34.6961C177.298 34.81 177.231 34.9138 177.146 35.0011C177.06 35.0883 176.957 35.1573 176.844 35.2037C176.731 35.2502 176.61 35.2731 176.487 35.2712C176.3 35.259 176.117 35.2115 175.948 35.1313C175.443 34.8493 174.879 34.6917 174.301 34.6714C173.545 34.6714 173.258 34.988 173.258 35.3212C173.258 35.6545 173.545 35.8745 174.018 35.9878L175.331 36.3211C176.787 36.6544 177.687 37.3209 177.687 38.654C177.674 40.0338 176.631 41.3336 174.448 41.3336Z" fill="#34C1F6"/>
<path d="M185.529 41.2538C185.379 41.2543 185.231 41.2251 185.093 41.168C184.954 41.1108 184.828 41.0269 184.722 40.921C184.616 40.815 184.532 40.6892 184.475 40.5507C184.418 40.4122 184.389 40.2638 184.389 40.114V36.3946C184.389 35.6847 184.233 34.8316 183.056 34.8316C181.997 34.8316 181.427 35.6848 181.427 36.8879V40.114C181.427 40.2638 181.398 40.4122 181.341 40.5507C181.284 40.6892 181.2 40.815 181.094 40.921C180.988 41.0269 180.862 41.1108 180.723 41.168C180.585 41.2251 180.437 41.2543 180.287 41.2538C179.985 41.2521 179.696 41.1314 179.483 40.918C179.269 40.7047 179.149 40.4158 179.147 40.114V30.6223C179.149 30.3205 179.269 30.0316 179.483 29.8182C179.696 29.6048 179.985 29.4842 180.287 29.4824C180.437 29.482 180.585 29.5112 180.723 29.5683C180.862 29.6254 180.988 29.7094 181.094 29.8153C181.2 29.9212 181.284 30.0471 181.341 30.1856C181.398 30.324 181.427 30.4724 181.427 30.6223V34.0217C181.701 33.6606 182.058 33.3714 182.469 33.1787C182.879 32.986 183.33 32.8956 183.783 32.9152C185.763 32.9152 186.679 34.4516 186.679 35.9147V40.1207C186.676 40.423 186.553 40.7117 186.337 40.9239C186.122 41.1362 185.832 41.2547 185.529 41.2538Z" fill="#34C1F6"/>
<path d="M189.582 29.2924C189.762 29.2843 189.942 29.3127 190.11 29.3761C190.279 29.4394 190.433 29.5363 190.564 29.661C190.694 29.7856 190.797 29.9353 190.868 30.1011C190.939 30.2668 190.975 30.4452 190.975 30.6255C190.975 30.8057 190.939 30.9841 190.868 31.1499C190.797 31.3157 190.694 31.4654 190.564 31.59C190.433 31.7146 190.279 31.8115 190.11 31.8749C189.942 31.9382 189.762 31.9667 189.582 31.9586C189.405 31.9621 189.228 31.9303 189.064 31.8649C188.899 31.7995 188.749 31.7018 188.622 31.5777C188.495 31.4535 188.395 31.3054 188.326 31.1419C188.257 30.9784 188.222 30.8028 188.222 30.6255C188.219 30.4474 188.253 30.2705 188.32 30.1057C188.388 29.941 188.489 29.7917 188.616 29.667C188.743 29.5423 188.894 29.4448 189.06 29.3804C189.226 29.316 189.404 29.286 189.582 29.2924ZM188.442 40.1206V34.1216C188.446 33.8206 188.568 33.5332 188.781 33.3203C188.993 33.1075 189.281 32.986 189.582 32.9817C189.884 32.9835 190.173 33.1042 190.386 33.3175C190.599 33.5309 190.72 33.8198 190.722 34.1216V40.1206C190.722 40.2704 190.693 40.4188 190.636 40.5573C190.579 40.6957 190.495 40.8216 190.389 40.9275C190.283 41.0335 190.157 41.1174 190.019 41.1745C189.88 41.2316 189.732 41.2608 189.582 41.2604C189.28 41.2586 188.991 41.138 188.778 40.9246C188.564 40.7112 188.444 40.4223 188.442 40.1206Z" fill="#34C1F6"/>
<path d="M192.601 43.5633V34.0549C192.601 33.7694 192.715 33.4955 192.917 33.2936C193.119 33.0918 193.392 32.9783 193.678 32.9783C193.814 32.9679 193.951 32.9853 194.079 33.0296C194.208 33.0739 194.327 33.1441 194.428 33.2358C194.529 33.3276 194.61 33.439 194.666 33.5632C194.722 33.6875 194.752 33.8219 194.754 33.9582V34.1815C195.228 33.3916 196.178 32.915 197.317 32.915C199.467 32.915 201.003 34.6081 201.003 37.061C201.003 39.5139 199.484 41.3336 197.317 41.3336C196.859 41.3498 196.403 41.2643 195.982 41.0834C195.561 40.9025 195.185 40.6306 194.881 40.2871V43.5633C194.882 43.7131 194.852 43.8615 194.795 44C194.738 44.1385 194.654 44.2643 194.548 44.3702C194.442 44.4761 194.316 44.5601 194.178 44.6172C194.039 44.6743 193.891 44.7035 193.741 44.7031C193.439 44.7013 193.151 44.5807 192.937 44.3673C192.724 44.1539 192.603 43.865 192.601 43.5633ZM196.811 39.464C197.964 39.464 198.694 38.5008 198.694 37.131C198.694 35.7612 197.951 34.7981 196.811 34.7981C195.671 34.7981 194.848 35.7312 194.848 37.131C194.848 38.5308 195.654 39.454 196.811 39.454V39.464Z" fill="#34C1F6"/>
<path d="M91.4381 49.0658H95.0309C97.3238 49.0658 98.8902 50.6622 98.8902 52.6718C98.8975 53.1793 98.8024 53.683 98.6107 54.1528C98.4189 54.6227 98.1344 55.0491 97.7742 55.4065C97.414 55.764 96.9854 56.0451 96.514 56.2332C96.0427 56.4213 95.5382 56.5125 95.0309 56.5012H92.1813V59.5007C92.1796 59.6929 92.1025 59.8766 91.9666 60.0125C91.8307 60.1484 91.6469 60.2255 91.4548 60.2272C91.3572 60.2294 91.2601 60.2124 91.1691 60.1771C91.0781 60.1418 90.9949 60.0889 90.9243 60.0214C90.8538 59.9539 90.7972 59.8732 90.7578 59.7839C90.7185 59.6945 90.6971 59.5983 90.6949 59.5007V49.7856C90.6863 49.6869 90.6998 49.5875 90.7344 49.4946C90.7691 49.4017 90.824 49.3178 90.8952 49.2488C90.9664 49.1799 91.0521 49.1276 91.146 49.096C91.2399 49.0643 91.3397 49.054 91.4381 49.0658ZM95.0309 55.1248C95.3486 55.125 95.6631 55.061 95.9555 54.9366C96.2478 54.8122 96.512 54.6299 96.7321 54.4008C96.9522 54.1717 97.1237 53.9004 97.2363 53.6033C97.3489 53.3061 97.4002 52.9893 97.3871 52.6718C97.3862 52.3685 97.3236 52.0685 97.2033 51.79C97.0829 51.5116 96.9072 51.2605 96.6869 51.052C96.4665 50.8435 96.2061 50.682 95.9215 50.5771C95.6368 50.4723 95.3338 50.4264 95.0309 50.4422H92.1813V55.1081L95.0309 55.1248Z" fill="#34C1F6"/>
<path d="M99.8768 56.1845C99.8768 53.7483 101.523 52.0386 103.876 52.0386C106.229 52.0386 107.876 53.7483 107.876 56.1845C107.876 58.6208 106.209 60.3305 103.876 60.3305C101.543 60.3305 99.8768 58.6208 99.8768 56.1845ZM103.876 59.1107C105.396 59.1107 106.472 57.8943 106.472 56.1845C106.472 54.4748 105.396 53.2584 103.876 53.2584C102.356 53.2584 101.297 54.4748 101.297 56.1845C101.297 57.8943 102.336 59.1174 103.856 59.1174L103.876 59.1107Z" fill="#34C1F6"/>
<path d="M109.712 59.5541V52.7852C109.712 52.6113 109.78 52.4442 109.901 52.3197C110.023 52.1951 110.188 52.123 110.362 52.1187C110.538 52.1187 110.708 52.1889 110.833 52.3139C110.958 52.4389 111.028 52.6084 111.028 52.7852V53.955C111.485 52.8185 112.291 52.152 113.385 52.152H113.511C113.598 52.1505 113.685 52.1669 113.765 52.2001C113.845 52.2334 113.918 52.2828 113.979 52.3453C114.039 52.4077 114.087 52.482 114.117 52.5634C114.148 52.6448 114.162 52.7316 114.158 52.8185C114.158 52.9953 114.087 53.1648 113.962 53.2898C113.837 53.4148 113.668 53.4851 113.491 53.4851H113.398C112.021 53.4851 111.085 54.6549 111.085 56.7279V59.5441C111.078 59.7188 111.006 59.8845 110.882 60.0081C110.759 60.1317 110.593 60.2041 110.418 60.2107C110.238 60.2161 110.063 60.1502 109.93 60.0273C109.798 59.9045 109.72 59.7345 109.712 59.5541Z" fill="#34C1F6"/>
<path d="M114.998 52.8319C114.998 52.6719 115.061 52.5184 115.174 52.4053C115.287 52.2922 115.441 52.2286 115.601 52.2286H116.424V49.919C116.424 49.7423 116.494 49.5727 116.619 49.4477C116.744 49.3227 116.914 49.2525 117.091 49.2525C117.271 49.2506 117.444 49.3193 117.575 49.4439C117.705 49.5684 117.781 49.739 117.787 49.919V52.2286H119.73C119.887 52.2321 120.037 52.2974 120.147 52.4102C120.257 52.523 120.318 52.6745 120.317 52.8319C120.314 52.9863 120.251 53.1337 120.142 53.2426C120.032 53.3515 119.885 53.4134 119.73 53.4151H117.787V57.7477C117.787 58.5409 118.007 59.1242 119.067 59.1242C119.349 59.1234 119.628 59.0702 119.89 58.9675C119.977 58.922 120.075 58.9002 120.174 58.9042C120.272 58.9083 120.368 58.9382 120.451 58.9908C120.534 59.0434 120.603 59.117 120.649 59.2041C120.695 59.2913 120.717 59.389 120.713 59.4874C120.715 59.5976 120.684 59.7058 120.625 59.7987C120.565 59.8917 120.48 59.9653 120.38 60.0107C119.95 60.2336 119.471 60.348 118.987 60.344C117.074 60.344 116.394 59.2675 116.394 57.8744V53.4285H115.571C115.417 53.4224 115.271 53.3569 115.164 53.2457C115.057 53.1344 114.997 52.9861 114.998 52.8319Z" fill="#34C1F6"/>
<path d="M121.77 58.0676C121.77 56.6578 122.863 55.9646 124.303 55.5847L127.166 54.8415C127.119 54.0316 126.706 53.2584 125.316 53.2584C124.176 53.2584 123.446 53.9249 122.88 54.4282C122.747 54.5421 122.578 54.6037 122.403 54.6015C122.281 54.5986 122.163 54.5589 122.064 54.4876C121.965 54.4163 121.89 54.3167 121.849 54.202C121.808 54.0873 121.803 53.9627 121.834 53.8449C121.865 53.727 121.931 53.6213 122.023 53.5417C122.445 53.0746 122.958 52.6998 123.532 52.4411C124.106 52.1824 124.727 52.0454 125.356 52.0386C127.602 52.0386 128.522 53.4017 128.522 54.9814V59.6006C128.521 59.7683 128.454 59.9289 128.336 60.0475C128.217 60.166 128.056 60.233 127.889 60.2339C127.803 60.2379 127.717 60.2246 127.637 60.1946C127.556 60.1646 127.483 60.1187 127.42 60.0595C127.358 60.0004 127.308 59.9292 127.274 59.8503C127.24 59.7715 127.223 59.6865 127.222 59.6006V58.7008C126.955 59.2148 126.546 59.6416 126.044 59.9304C125.542 60.2193 124.968 60.3581 124.389 60.3305C122.64 60.3305 121.77 59.254 121.77 58.0676ZM124.619 59.1574C125.932 59.1574 127.182 58.0043 127.182 56.0912V55.9946L124.619 56.6611C123.619 56.9311 123.163 57.391 123.163 57.9943C123.163 58.5975 123.539 59.1574 124.619 59.1574Z" fill="#34C1F6"/>
<path d="M131.475 48.4956C131.649 48.503 131.815 48.5755 131.938 48.699C132.062 48.8224 132.134 48.9877 132.141 49.1622V59.5404C132.134 59.7149 132.062 59.8801 131.938 60.0036C131.815 60.127 131.649 60.1996 131.475 60.207C131.3 60.202 131.133 60.1301 131.009 60.0062C130.885 59.8823 130.813 59.7156 130.808 59.5404V49.1622C130.813 48.987 130.885 48.8203 131.009 48.6964C131.133 48.5725 131.3 48.5006 131.475 48.4956Z" fill="#34C1F6"/>
<mask id="mask0_14_7374" style="mask-type:luminance" maskUnits="userSpaceOnUse" x="8" y="16" width="68" height="53">
<path d="M71.2149 34.6448H58.3337C57.6169 34.6483 56.9289 34.9269 56.4116 35.423C55.8944 35.9192 55.5874 36.595 55.5541 37.311L55.2975 40.9771H51.0149C50.5202 40.9779 50.0459 41.1749 49.6961 41.5247C49.3463 41.8745 49.1494 42.3487 49.1485 42.8434C49.1485 43.3384 49.3451 43.8131 49.6952 44.1631C50.0452 44.5131 50.5199 44.7098 51.0149 44.7098H58.7769L59.2202 38.3775H70.2683L71.9347 64.2699H57.4038L58.2003 52.9384L58.2403 52.3885L56.7706 51.9819C51.9379 50.6188 46.9409 49.9258 41.9197 49.9223C37.0416 49.9426 32.1854 50.5763 27.4654 51.8086L25.959 52.1952L26.8089 64.2566H12.2746L13.941 38.3642H24.9925L25.0992 39.8673L25.4324 44.6965H30.8015C31.2915 44.6965 31.8014 44.6965 32.2913 44.6965C32.7812 44.6965 33.2911 44.6965 33.811 44.6965C35.2243 44.7159 36.6367 44.6178 38.0337 44.4032C40.2799 44.0254 42.4417 43.2537 44.4193 42.1236C48.0857 40.0277 50.9758 36.8021 52.6579 32.9284C52.8212 32.5485 52.9745 32.1519 53.1145 31.7553L53.2145 31.472V31.4453C53.2165 31.4377 53.2165 31.4297 53.2145 31.422C53.5943 30.2566 53.7866 29.0383 53.7844 27.8126C53.788 26.2521 53.4762 24.707 52.8679 23.27C52.2828 21.8843 51.4339 20.6256 50.3683 19.5639C49.3064 18.4972 48.0463 17.6481 46.6589 17.0644C45.2233 16.455 43.6793 16.1421 42.1197 16.1445C40.5469 16.1576 38.9934 16.4909 37.5538 17.1244C36.1668 17.709 34.9069 18.558 33.8444 19.6239C32.3724 21.1115 31.3268 22.9669 30.8168 24.9965C30.3067 27.0261 30.351 29.1554 30.9449 31.162C31.4584 32.8302 32.3397 34.3618 33.5239 35.6441C34.7081 36.9263 36.1649 37.9265 37.7871 38.5708C37.9993 38.655 38.2253 38.6991 38.4536 38.7008C38.829 38.7014 39.1957 38.5883 39.5056 38.3766C39.8155 38.1648 40.0541 37.8642 40.19 37.5143C40.2806 37.2867 40.3249 37.0434 40.3203 36.7984C40.3157 36.5535 40.2623 36.312 40.1633 36.0879C40.0665 35.8613 39.9256 35.6562 39.7488 35.4846C39.572 35.313 39.3628 35.1782 39.1335 35.0881C38.0381 34.6457 37.0542 33.9662 36.2527 33.0984C35.4511 32.2305 34.8517 31.1959 34.4976 30.0689C34.0962 28.7097 34.0672 27.2676 34.4137 25.8934C34.7601 24.5191 35.4694 23.2632 36.4673 22.2569C37.1905 21.5317 38.0472 20.9534 38.9902 20.5538C39.9676 20.1403 41.0184 19.9283 42.0797 19.9306C43.1398 19.9287 44.1895 20.1406 45.1658 20.5538C46.1093 20.9525 46.9662 21.531 47.6888 22.2569C48.4154 22.9789 48.9939 23.8359 49.3918 24.7798C49.805 25.7561 50.017 26.8057 50.015 27.8659C50.0165 28.7083 49.8826 29.5456 49.6184 30.3455C49.5951 30.4222 49.5684 30.4955 49.5418 30.5688C49.4951 30.6988 49.4451 30.8288 49.3918 30.9554C49.3638 31.0218 49.3393 31.0897 49.3185 31.1587C49.2685 31.2853 49.2218 31.3987 49.1785 31.492C47.8166 34.6236 45.4784 37.2307 42.5129 38.9241C40.9142 39.8353 39.168 40.459 37.3538 40.7671C36.1693 40.9454 34.9721 41.0257 33.7744 41.0071C33.2845 41.0071 32.7946 41.0071 32.2746 41.0071H32.258C31.7614 41.0071 31.2581 41.0071 30.7416 41.0071H28.8885L28.8019 39.674L28.6386 37.341C28.6044 36.6248 28.2968 35.9489 27.779 35.4528C27.2612 34.9567 26.5728 34.6783 25.8557 34.6748H12.9745C12.2749 34.6823 11.6044 34.9559 11.0992 35.44C10.5941 35.9241 10.2922 36.5823 10.255 37.281L8.28528 68.0326H30.8015L29.8917 55.1014C33.831 54.1826 37.8614 53.712 41.9064 53.6983C46.082 53.6997 50.2416 54.2157 54.291 55.2347L53.4378 67.3127L53.3878 68.0326H75.9041L73.9377 37.2777C73.9055 36.5743 73.6055 35.9098 73.0993 35.4203C72.5931 34.9308 71.9189 34.6534 71.2149 34.6448Z" fill="white"/>
</mask>
<g mask="url(#mask0_14_7374)">
<path d="M10.0716 16.1875H8.29187V68.0022H10.0716V16.1875Z" fill="#34D399"/>
<path d="M11.8514 16.1875H10.0717V68.0022H11.8514V16.1875Z" fill="#34D39A"/>
<path d="M13.631 16.1875H11.8513V68.0022H13.631V16.1875Z" fill="#34D39B"/>
<path d="M15.4107 16.1875H13.631V68.0022H15.4107V16.1875Z" fill="#33D39C"/>
<path d="M17.1871 16.1875H15.4073V68.0022H17.1871V16.1875Z" fill="#33D39D"/>
<path d="M18.9668 16.1875H17.1871V68.0022H18.9668V16.1875Z" fill="#33D39E"/>
<path d="M20.7465 16.1875H18.9668V68.0022H20.7465V16.1875Z" fill="#33D39F"/>
<path d="M22.5262 16.1875H20.7465V68.0022H22.5262V16.1875Z" fill="#33D3A0"/>
<path d="M24.306 16.1875H22.5262V68.0022H24.306V16.1875Z" fill="#32D3A1"/>
<path d="M26.0856 16.1875H24.3059V68.0022H26.0856V16.1875Z" fill="#32D3A2"/>
<path d="M27.8653 16.1875H26.0856V68.0022H27.8653V16.1875Z" fill="#32D3A3"/>
<path d="M29.6451 16.1875H27.8654V68.0022H29.6451V16.1875Z" fill="#32D3A4"/>
<path d="M31.4247 16.1875H29.645V68.0022H31.4247V16.1875Z" fill="#32D3A5"/>
<path d="M33.2044 16.1875H31.4247V68.0022H33.2044V16.1875Z" fill="#32D3A6"/>
<path d="M34.9842 16.1875H33.2045V68.0022H34.9842V16.1875Z" fill="#31D3A7"/>
<path d="M36.7605 16.1875H34.9808V68.0022H36.7605V16.1875Z" fill="#31D3A8"/>
<path d="M38.5402 16.1875H36.7605V68.0022H38.5402V16.1875Z" fill="#31D3A9"/>
<path d="M40.32 16.1875H38.5403V68.0022H40.32V16.1875Z" fill="#31D3AA"/>
<path d="M42.0997 16.1875H40.3199V68.0022H42.0997V16.1875Z" fill="#31D3AB"/>
<path d="M43.8793 16.1875H42.0996V68.0022H43.8793V16.1875Z" fill="#30D4AD"/>
<path d="M45.6591 16.1875H43.8794V68.0022H45.6591V16.1875Z" fill="#30D4AE"/>
<path d="M47.4388 16.1875H45.6591V68.0022H47.4388V16.1875Z" fill="#30D4AF"/>
<path d="M49.2184 16.1875H47.4387V68.0022H49.2184V16.1875Z" fill="#30D4B0"/>
<path d="M50.9982 16.1875H49.2185V68.0022H50.9982V16.1875Z" fill="#30D4B1"/>
<path d="M52.7779 16.1875H50.9982V68.0022H52.7779V16.1875Z" fill="#2FD4B2"/>
<path d="M54.5575 16.1875H52.7778V68.0022H54.5575V16.1875Z" fill="#2FD4B3"/>
<path d="M56.3373 16.1875H54.5576V68.0022H56.3373V16.1875Z" fill="#2FD4B4"/>
<path d="M58.1137 16.1875H56.334V68.0022H58.1137V16.1875Z" fill="#2FD4B5"/>
<path d="M59.8934 16.1875H58.1136V68.0022H59.8934V16.1875Z" fill="#2FD4B6"/>
<path d="M61.673 16.1875H59.8933V68.0022H61.673V16.1875Z" fill="#2FD4B7"/>
<path d="M63.4528 16.1875H61.6731V68.0022H63.4528V16.1875Z" fill="#2ED4B8"/>
<path d="M65.2325 16.1875H63.4528V68.0022H65.2325V16.1875Z" fill="#2ED4B9"/>
<path d="M67.0121 16.1875H65.2324V68.0022H67.0121V16.1875Z" fill="#2ED4BA"/>
<path d="M68.7919 16.1875H67.0122V68.0022H68.7919V16.1875Z" fill="#2ED4BB"/>
<path d="M70.5716 16.1875H68.7919V68.0022H70.5716V16.1875Z" fill="#2ED4BC"/>
<path d="M72.3512 16.1875H70.5715V68.0022H72.3512V16.1875Z" fill="#2DD4BD"/>
<path d="M74.131 16.1875H72.3513V68.0022H74.131V16.1875Z" fill="#2DD4BE"/>
<path d="M75.9107 16.1875H74.131V68.0022H75.9107V16.1875Z" fill="#2DD4BF"/>
</g>
<mask id="mask1_14_7374" style="mask-type:luminance" maskUnits="userSpaceOnUse" x="0" y="0" width="85" height="33">
<path d="M83.2392 22.85L43.0126 0.330364C42.7342 0.175695 42.4211 0.0942855 42.1027 0.09375C41.7832 0.0943031 41.4691 0.175693 41.1895 0.330364L0.966197 22.85C0.680771 23.0097 0.442229 23.2414 0.274386 23.5222C0.106544 23.8029 0.0152762 24.1227 0.00969029 24.4497C0.00528905 24.7772 0.0870208 25.1002 0.246701 25.3862C0.406382 25.6723 0.6384 25.9113 0.919533 26.0794L10.9779 32.0784C11.2663 32.25 11.5955 32.341 11.931 32.3417C12.086 32.341 12.2404 32.322 12.391 32.2851C12.6284 32.2254 12.8517 32.1193 13.0479 31.9729C13.2441 31.8264 13.4094 31.6426 13.5341 31.4319C13.787 31.0065 13.861 30.4983 13.7398 30.0185C13.6186 29.5387 13.3121 29.1265 12.8876 28.8723L5.60543 24.5397L42.1027 4.11306L78.5967 24.5397L71.3145 28.8723C70.89 29.1265 70.5835 29.5387 70.4623 30.0185C70.3411 30.4983 70.4151 31.0065 70.668 31.4319C70.8343 31.7087 71.0693 31.9378 71.3501 32.0972C71.6309 32.2566 71.9481 32.3408 72.271 32.3417C72.6076 32.3406 72.9378 32.2497 73.2275 32.0784L83.2826 26.0794C83.5637 25.9113 83.7957 25.6723 83.9554 25.3862C84.1151 25.1002 84.1968 24.7772 84.1924 24.4497C84.1875 24.1229 84.0969 23.8032 83.9296 23.5225C83.7623 23.2417 83.5243 23.0098 83.2392 22.85Z" fill="white"/>
</mask>
<g mask="url(#mask1_14_7374)">
<path d="M0.00999834 0.09375H0V32.3384H0.00999834V0.09375Z" fill="#38BDF8"/>
<path d="M3.83568 0.09375H0.00964355V32.3384H3.83568V0.09375Z" fill="#38BDF8"/>
<path d="M7.66209 0.09375H3.83606V32.3384H7.66209V0.09375Z" fill="#37BEF8"/>
<path d="M11.4881 0.09375H7.66211V32.3384H11.4881V0.09375Z" fill="#36BFF7"/>
<path d="M15.3141 0.09375H11.488V32.3384H15.3141V0.09375Z" fill="#35C0F7"/>
<path d="M19.1401 0.09375H15.3141V32.3384H19.1401V0.09375Z" fill="#34C1F6"/>
<path d="M22.9662 0.09375H19.1401V32.3384H22.9662V0.09375Z" fill="#33C2F6"/>
<path d="M26.7922 0.09375H22.9662V32.3384H26.7922V0.09375Z" fill="#32C3F5"/>
<path d="M30.6216 0.09375H26.7955V32.3384H30.6216V0.09375Z" fill="#31C4F5"/>
<path d="M34.4476 0.09375H30.6216V32.3384H34.4476V0.09375Z" fill="#30C5F4"/>
<path d="M38.2737 0.09375H34.4476V32.3384H38.2737V0.09375Z" fill="#2FC6F4"/>
<path d="M42.0997 0.09375H38.2737V32.3384H42.0997V0.09375Z" fill="#2EC7F3"/>
<path d="M45.9258 0.09375H42.0997V32.3384H45.9258V0.09375Z" fill="#2CC9F3"/>
<path d="M49.7518 0.09375H45.9258V32.3384H49.7518V0.09375Z" fill="#2BCAF2"/>
<path d="M53.5777 0.09375H49.7517V32.3384H53.5777V0.09375Z" fill="#2ACBF2"/>
<path d="M57.4071 0.09375H53.5811V32.3384H57.4071V0.09375Z" fill="#29CCF1"/>
<path d="M61.2331 0.09375H57.4071V32.3384H61.2331V0.09375Z" fill="#28CDF1"/>
<path d="M65.0592 0.09375H61.2332V32.3384H65.0592V0.09375Z" fill="#27CEF0"/>
<path d="M68.8852 0.09375H65.0592V32.3384H68.8852V0.09375Z" fill="#26CFF0"/>
<path d="M72.7113 0.09375H68.8853V32.3384H72.7113V0.09375Z" fill="#25D0EF"/>
<path d="M76.5373 0.09375H72.7113V32.3384H76.5373V0.09375Z" fill="#24D1EF"/>
<path d="M80.3634 0.09375H76.5374V32.3384H80.3634V0.09375Z" fill="#23D2EE"/>
<path d="M84.1927 0.09375H80.3667V32.3384H84.1927V0.09375Z" fill="#22D3EE"/>
</g>
<mask id="mask2_14_7374" style="mask-type:luminance" maskUnits="userSpaceOnUse" x="0" y="30" width="6" height="16">
<path d="M5.58909 43.12C5.58909 43.8448 5.30116 44.5399 4.78865 45.0524C4.27613 45.5649 3.58102 45.8529 2.85622 45.8529C2.13111 45.8529 1.43564 45.5651 0.9226 45.0526C0.409556 44.5402 0.120882 43.8451 0.119999 43.12C0.11925 42.6632 0.233311 42.2135 0.45169 41.8123C0.67007 41.4111 0.985766 41.0711 1.36979 40.8237V31.7019C1.36979 31.3094 1.52569 30.9331 1.8032 30.6556C2.08071 30.3781 2.45709 30.2222 2.84955 30.2222C3.24297 30.2223 3.62037 30.378 3.89937 30.6554C4.17624 30.9334 4.33199 31.3096 4.33264 31.7019V40.8171C4.71842 41.0647 5.0357 41.4055 5.25527 41.8079C5.47483 42.2104 5.58963 42.6616 5.58909 43.12Z" fill="white"/>
</mask>
<g mask="url(#mask2_14_7374)">
<path d="M0.369954 30.2192H0.119995V45.85H0.369954V30.2192Z" fill="#38BDF8"/>
<path d="M0.616536 30.2192H0.366577V45.85H0.616536V30.2192Z" fill="#37BEF8"/>
<path d="M0.866536 30.2192H0.616577V45.85H0.866536V30.2192Z" fill="#36BFF7"/>
<path d="M1.11654 30.2192H0.866577V45.85H1.11654V30.2192Z" fill="#35C0F7"/>
<path d="M1.36312 30.2192H1.11316V45.85H1.36312V30.2192Z" fill="#34C1F6"/>
<path d="M1.61312 30.2192H1.36316V45.85H1.61312V30.2192Z" fill="#33C2F6"/>
<path d="M1.8597 30.2192H1.60974V45.85H1.8597V30.2192Z" fill="#32C3F5"/>
<path d="M2.1097 30.2192H1.85974V45.85H2.1097V30.2192Z" fill="#31C4F5"/>
<path d="M2.35958 30.2192H2.10962V45.85H2.35958V30.2192Z" fill="#30C5F4"/>
<path d="M2.60628 30.2192H2.35632V45.85H2.60628V30.2192Z" fill="#2FC6F4"/>
<path d="M2.85616 30.2192H2.6062V45.85H2.85616V30.2192Z" fill="#2EC7F3"/>
<path d="M3.10286 30.2192H2.85291V45.85H3.10286V30.2192Z" fill="#2CC9F3"/>
<path d="M3.35274 30.2192H3.10278V45.85H3.35274V30.2192Z" fill="#2BCAF2"/>
<path d="M3.60274 30.2192H3.35278V45.85H3.60274V30.2192Z" fill="#2ACBF2"/>
<path d="M3.84932 30.2192H3.59937V45.85H3.84932V30.2192Z" fill="#29CCF1"/>
<path d="M4.09932 30.2192H3.84937V45.85H4.09932V30.2192Z" fill="#28CDF1"/>
<path d="M4.34591 30.2192H4.09595V45.85H4.34591V30.2192Z" fill="#27CEF0"/>
<path d="M4.59591 30.2192H4.34595V45.85H4.59591V30.2192Z" fill="#26CFF0"/>
<path d="M4.84591 30.2192H4.59595V45.85H4.84591V30.2192Z" fill="#25D0EF"/>
<path d="M5.09249 30.2192H4.84253V45.85H5.09249V30.2192Z" fill="#24D1EF"/>
<path d="M5.34249 30.2192H5.09253V45.85H5.34249V30.2192Z" fill="#23D2EE"/>
<path d="M5.58907 30.2192H5.33911V45.85H5.58907V30.2192Z" fill="#22D3EE"/>
</g>
<mask id="mask3_14_7374" style="mask-type:luminance" maskUnits="userSpaceOnUse" x="37" y="23" width="10" height="9">
<path d="M42.403 23.4231L43.2162 25.926C43.2387 25.9883 43.2792 26.0425 43.3326 26.0817C43.386 26.1209 43.4499 26.1432 43.5161 26.1459H46.149C46.211 26.1544 46.2694 26.1801 46.3175 26.2202C46.3655 26.2602 46.4013 26.313 46.4208 26.3724C46.4403 26.4319 46.4426 26.4956 46.4276 26.5564C46.4125 26.6171 46.3807 26.6724 46.3357 26.7158L44.206 28.2656C44.1546 28.3024 44.1158 28.3541 44.0949 28.4137C44.074 28.4734 44.0721 28.5381 44.0894 28.5989L44.9026 31.1051C44.9244 31.1684 44.9253 31.237 44.9053 31.3009C44.8852 31.3647 44.8453 31.4205 44.7912 31.46C44.7372 31.4995 44.6719 31.5206 44.605 31.5204C44.5381 31.5201 44.473 31.4983 44.4193 31.4584L42.2863 29.9086C42.2316 29.8721 42.1672 29.8526 42.1014 29.8526C42.0355 29.8526 41.9712 29.8721 41.9164 29.9086L39.7834 31.4584C39.7297 31.4983 39.6647 31.5201 39.5977 31.5204C39.5308 31.5206 39.4655 31.4995 39.4115 31.46C39.3575 31.4205 39.3175 31.3647 39.2975 31.3009C39.2775 31.237 39.2784 31.1684 39.3002 31.1051L40.1134 28.5989C40.1305 28.5384 40.1289 28.4741 40.1086 28.4146C40.0884 28.3551 40.0505 28.3031 40.0001 28.2656L37.8671 26.7158C37.8221 26.6724 37.7902 26.6171 37.7752 26.5564C37.7601 26.4956 37.7625 26.4319 37.7819 26.3724C37.8014 26.313 37.8372 26.2602 37.8853 26.2202C37.9333 26.1801 37.9917 26.1544 38.0537 26.1459H40.6866C40.7528 26.1432 40.8167 26.1209 40.8701 26.0817C40.9236 26.0425 40.9641 25.9883 40.9866 25.926L41.8031 23.4231C41.8225 23.3586 41.8622 23.3021 41.9162 23.262C41.9702 23.2219 42.0357 23.2002 42.103 23.2002C42.1703 23.2002 42.2359 23.2219 42.2899 23.262C42.3439 23.3021 42.3836 23.3586 42.403 23.4231Z" fill="white"/>
</mask>
<g mask="url(#mask3_14_7374)">
<path d="M38.1338 23.1299H37.7372V31.6551H38.1338V23.1299Z" fill="#38BDF8"/>
<path d="M38.5304 23.1299H38.1338V31.6551H38.5304V23.1299Z" fill="#37BEF8"/>
<path d="M38.9269 23.1299H38.5303V31.6551H38.9269V23.1299Z" fill="#36BFF7"/>
<path d="M39.3235 23.1299H38.9269V31.6551H39.3235V23.1299Z" fill="#35C0F7"/>
<path d="M39.7201 23.1299H39.3235V31.6551H39.7201V23.1299Z" fill="#34C1F6"/>
<path d="M40.1167 23.1299H39.7201V31.6551H40.1167V23.1299Z" fill="#33C2F6"/>
<path d="M40.5133 23.1299H40.1167V31.6551H40.5133V23.1299Z" fill="#32C3F5"/>
<path d="M40.9099 23.1299H40.5133V31.6551H40.9099V23.1299Z" fill="#31C4F5"/>
<path d="M41.3065 23.1299H40.9099V31.6551H41.3065V23.1299Z" fill="#30C5F4"/>
<path d="M41.7031 23.1299H41.3065V31.6551H41.7031V23.1299Z" fill="#2FC6F4"/>
<path d="M42.0997 23.1299H41.7031V31.6551H42.0997V23.1299Z" fill="#2EC7F3"/>
<path d="M42.4963 23.1299H42.0997V31.6551H42.4963V23.1299Z" fill="#2CC9F3"/>
<path d="M42.8929 23.1299H42.4963V31.6551H42.8929V23.1299Z" fill="#2BCAF2"/>
<path d="M43.2895 23.1299H42.8929V31.6551H43.2895V23.1299Z" fill="#2ACBF2"/>
<path d="M43.6862 23.1299H43.2896V31.6551H43.6862V23.1299Z" fill="#29CCF1"/>
<path d="M44.0828 23.1299H43.6862V31.6551H44.0828V23.1299Z" fill="#28CDF1"/>
<path d="M44.4794 23.1299H44.0828V31.6551H44.4794V23.1299Z" fill="#27CEF0"/>
<path d="M44.8793 23.1299H44.4827V31.6551H44.8793V23.1299Z" fill="#26CFF0"/>
<path d="M45.2759 23.1299H44.8793V31.6551H45.2759V23.1299Z" fill="#25D0EF"/>
<path d="M45.6725 23.1299H45.2759V31.6551H45.6725V23.1299Z" fill="#24D1EF"/>
<path d="M46.0691 23.1299H45.6725V31.6551H46.0691V23.1299Z" fill="#23D2EE"/>
<path d="M46.4657 23.1299H46.0691V31.6551H46.4657V23.1299Z" fill="#22D3EE"/>
</g>
<mask id="mask4_14_7374" style="mask-type:luminance" maskUnits="userSpaceOnUse" x="17" y="54" width="5" height="7">
<path d="M20.64 54.9282H18.6636C18.1979 54.9282 17.8204 55.3057 17.8204 55.7714V60.1073C17.8204 60.573 18.1979 60.9505 18.6636 60.9505H20.64C21.1056 60.9505 21.4832 60.573 21.4832 60.1073V55.7714C21.4832 55.3057 21.1056 54.9282 20.64 54.9282Z" fill="white"/>
</mask>
<g mask="url(#mask4_14_7374)">
<path d="M17.9171 54.9253H17.8204V60.9476H17.9171V54.9253Z" fill="#34D399"/>
<path d="M18.0138 54.9253H17.9171V60.9476H18.0138V54.9253Z" fill="#34D39A"/>
<path d="M18.107 54.9253H18.0104V60.9476H18.107V54.9253Z" fill="#34D39B"/>
<path d="M18.2037 54.9253H18.1071V60.9476H18.2037V54.9253Z" fill="#33D39C"/>
<path d="M18.3004 54.9253H18.2037V60.9476H18.3004V54.9253Z" fill="#33D39D"/>
<path d="M18.3971 54.9253H18.3004V60.9476H18.3971V54.9253Z" fill="#33D39E"/>
<path d="M18.4936 54.9253H18.397V60.9476H18.4936V54.9253Z" fill="#33D39F"/>
<path d="M18.5903 54.9253H18.4937V60.9476H18.5903V54.9253Z" fill="#33D3A0"/>
<path d="M18.687 54.9253H18.5903V60.9476H18.687V54.9253Z" fill="#32D3A1"/>
<path d="M18.7837 54.9253H18.687V60.9476H18.7837V54.9253Z" fill="#32D3A2"/>
<path d="M18.8802 54.9253H18.7836V60.9476H18.8802V54.9253Z" fill="#32D3A3"/>
<path d="M18.9769 54.9253H18.8802V60.9476H18.9769V54.9253Z" fill="#32D3A4"/>
<path d="M19.0736 54.9253H18.9769V60.9476H19.0736V54.9253Z" fill="#32D3A5"/>
<path d="M19.1668 54.9253H19.0702V60.9476H19.1668V54.9253Z" fill="#32D3A6"/>
<path d="M19.2635 54.9253H19.1669V60.9476H19.2635V54.9253Z" fill="#31D3A7"/>
<path d="M19.3602 54.9253H19.2635V60.9476H19.3602V54.9253Z" fill="#31D3A8"/>
<path d="M19.4569 54.9253H19.3602V60.9476H19.4569V54.9253Z" fill="#31D3A9"/>
<path d="M19.5534 54.9253H19.4568V60.9476H19.5534V54.9253Z" fill="#31D3AA"/>
<path d="M19.6501 54.9253H19.5535V60.9476H19.6501V54.9253Z" fill="#31D3AB"/>
<path d="M19.7468 54.9253H19.6501V60.9476H19.7468V54.9253Z" fill="#30D4AD"/>
<path d="M19.8435 54.9253H19.7468V60.9476H19.8435V54.9253Z" fill="#30D4AE"/>
<path d="M19.94 54.9253H19.8434V60.9476H19.94V54.9253Z" fill="#30D4AF"/>
<path d="M20.0367 54.9253H19.9401V60.9476H20.0367V54.9253Z" fill="#30D4B0"/>
<path d="M20.1334 54.9253H20.0367V60.9476H20.1334V54.9253Z" fill="#30D4B1"/>
<path d="M20.2267 54.9253H20.13V60.9476H20.2267V54.9253Z" fill="#2FD4B2"/>
<path d="M20.3233 54.9253H20.2267V60.9476H20.3233V54.9253Z" fill="#2FD4B3"/>
<path d="M20.42 54.9253H20.3234V60.9476H20.42V54.9253Z" fill="#2FD4B4"/>
<path d="M20.5167 54.9253H20.42V60.9476H20.5167V54.9253Z" fill="#2FD4B5"/>
<path d="M20.6133 54.9253H20.5166V60.9476H20.6133V54.9253Z" fill="#2FD4B6"/>
<path d="M20.7099 54.9253H20.6133V60.9476H20.7099V54.9253Z" fill="#2FD4B7"/>
<path d="M20.8066 54.9253H20.71V60.9476H20.8066V54.9253Z" fill="#2ED4B8"/>
<path d="M20.9033 54.9253H20.8066V60.9476H20.9033V54.9253Z" fill="#2ED4B9"/>
<path d="M20.9998 54.9253H20.9032V60.9476H20.9998V54.9253Z" fill="#2ED4BA"/>
<path d="M21.0965 54.9253H20.9999V60.9476H21.0965V54.9253Z" fill="#2ED4BB"/>
<path d="M21.1932 54.9253H21.0966V60.9476H21.1932V54.9253Z" fill="#2ED4BC"/>
<path d="M21.2865 54.9253H21.1898V60.9476H21.2865V54.9253Z" fill="#2DD4BD"/>
<path d="M21.3832 54.9253H21.2865V60.9476H21.3832V54.9253Z" fill="#2DD4BE"/>
<path d="M21.4798 54.9253H21.3832V60.9476H21.4798V54.9253Z" fill="#2DD4BF"/>
</g>
<mask id="mask5_14_7374" style="mask-type:luminance" maskUnits="userSpaceOnUse" x="63" y="54" width="4" height="7">
<path d="M66.1324 54.9282H64.1561C63.6904 54.9282 63.3129 55.3057 63.3129 55.7714V60.1073C63.3129 60.573 63.6904 60.9505 64.1561 60.9505H66.1324C66.5981 60.9505 66.9756 60.573 66.9756 60.1073V55.7714C66.9756 55.3057 66.5981 54.9282 66.1324 54.9282Z" fill="white"/>
</mask>
<g mask="url(#mask5_14_7374)">
<path d="M63.4095 54.9253H63.3129V60.9476H63.4095V54.9253Z" fill="#34D399"/>
<path d="M63.5028 54.9253H63.4061V60.9476H63.5028V54.9253Z" fill="#34D39A"/>
<path d="M63.5995 54.9253H63.5028V60.9476H63.5995V54.9253Z" fill="#34D39B"/>
<path d="M63.6961 54.9253H63.5995V60.9476H63.6961V54.9253Z" fill="#33D39C"/>
<path d="M63.7928 54.9253H63.6962V60.9476H63.7928V54.9253Z" fill="#33D39D"/>
<path d="M63.8895 54.9253H63.7928V60.9476H63.8895V54.9253Z" fill="#33D39E"/>
<path d="M63.9861 54.9253H63.8894V60.9476H63.9861V54.9253Z" fill="#33D39F"/>
<path d="M64.0827 54.9253H63.9861V60.9476H64.0827V54.9253Z" fill="#33D3A0"/>
<path d="M64.1794 54.9253H64.0828V60.9476H64.1794V54.9253Z" fill="#32D3A1"/>
<path d="M64.2761 54.9253H64.1794V60.9476H64.2761V54.9253Z" fill="#32D3A2"/>
<path d="M64.3726 54.9253H64.276V60.9476H64.3726V54.9253Z" fill="#32D3A3"/>
<path d="M64.4693 54.9253H64.3727V60.9476H64.4693V54.9253Z" fill="#32D3A4"/>
<path d="M64.5627 54.9253H64.4661V60.9476H64.5627V54.9253Z" fill="#32D3A5"/>
<path d="M64.6593 54.9253H64.5626V60.9476H64.6593V54.9253Z" fill="#32D3A6"/>
<path d="M64.756 54.9253H64.6593V60.9476H64.756V54.9253Z" fill="#31D3A7"/>
<path d="M64.8526 54.9253H64.756V60.9476H64.8526V54.9253Z" fill="#31D3A8"/>
<path d="M64.9493 54.9253H64.8527V60.9476H64.9493V54.9253Z" fill="#31D3A9"/>
<path d="M65.0459 54.9253H64.9492V60.9476H65.0459V54.9253Z" fill="#31D3AA"/>
<path d="M65.1426 54.9253H65.0459V60.9476H65.1426V54.9253Z" fill="#31D3AB"/>
<path d="M65.2392 54.9253H65.1426V60.9476H65.2392V54.9253Z" fill="#30D4AD"/>
<path d="M65.3359 54.9253H65.2393V60.9476H65.3359V54.9253Z" fill="#30D4AE"/>
<path d="M65.4325 54.9253H65.3358V60.9476H65.4325V54.9253Z" fill="#30D4AF"/>
<path d="M65.5291 54.9253H65.4325V60.9476H65.5291V54.9253Z" fill="#30D4B0"/>
<path d="M65.6225 54.9253H65.5259V60.9476H65.6225V54.9253Z" fill="#30D4B1"/>
<path d="M65.7191 54.9253H65.6224V60.9476H65.7191V54.9253Z" fill="#2FD4B2"/>
<path d="M65.8158 54.9253H65.7191V60.9476H65.8158V54.9253Z" fill="#2FD4B3"/>
<path d="M65.9124 54.9253H65.8158V60.9476H65.9124V54.9253Z" fill="#2FD4B4"/>
<path d="M66.0091 54.9253H65.9125V60.9476H66.0091V54.9253Z" fill="#2FD4B5"/>
<path d="M66.1057 54.9253H66.009V60.9476H66.1057V54.9253Z" fill="#2FD4B6"/>
<path d="M66.2024 54.9253H66.1057V60.9476H66.2024V54.9253Z" fill="#2FD4B7"/>
<path d="M66.299 54.9253H66.2024V60.9476H66.299V54.9253Z" fill="#2ED4B8"/>
<path d="M66.3957 54.9253H66.2991V60.9476H66.3957V54.9253Z" fill="#2ED4B9"/>
<path d="M66.4923 54.9253H66.3956V60.9476H66.4923V54.9253Z" fill="#2ED4BA"/>
<path d="M66.589 54.9253H66.4923V60.9476H66.589V54.9253Z" fill="#2ED4BB"/>
<path d="M66.6823 54.9253H66.5857V60.9476H66.6823V54.9253Z" fill="#2ED4BC"/>
<path d="M66.7789 54.9253H66.6823V60.9476H66.7789V54.9253Z" fill="#2DD4BD"/>
<path d="M66.8756 54.9253H66.7789V60.9476H66.8756V54.9253Z" fill="#2DD4BE"/>
<path d="M66.9723 54.9253H66.8756V60.9476H66.9723V54.9253Z" fill="#2DD4BF"/>
</g>
<path d="M139.054 48.9492H142.386C142.426 48.9497 142.466 48.9579 142.502 48.9736C142.539 48.9892 142.572 49.0119 142.6 49.0404C142.628 49.0689 142.65 49.1026 142.665 49.1395C142.679 49.1765 142.687 49.216 142.686 49.2558C142.687 49.2957 142.679 49.3352 142.665 49.3722C142.65 49.4091 142.628 49.4428 142.6 49.4713C142.572 49.4997 142.539 49.5225 142.502 49.5381C142.466 49.5538 142.426 49.562 142.386 49.5624H141.053V53.5618C141.053 53.6502 141.018 53.735 140.956 53.7975C140.893 53.86 140.808 53.8951 140.72 53.8951C140.632 53.8951 140.547 53.86 140.484 53.7975C140.422 53.735 140.387 53.6502 140.387 53.5618V49.5624H139.054C138.974 49.5599 138.898 49.5265 138.842 49.4694C138.786 49.4123 138.754 49.3358 138.754 49.2558C138.754 49.1759 138.786 49.0994 138.842 49.0423C138.898 48.9851 138.974 48.9518 139.054 48.9492Z" fill="white"/>
<path d="M146.166 53.8916C146.087 53.8899 146.011 53.8578 145.956 53.8019C145.9 53.746 145.868 53.6707 145.866 53.5917V51.8053C145.866 51.3621 145.759 50.8321 145.046 50.8321C144.333 50.8321 144.009 51.3854 144.009 52.1952V53.5917C144.008 53.6713 143.975 53.7471 143.919 53.803C143.862 53.859 143.786 53.8907 143.706 53.8916C143.627 53.8907 143.551 53.8588 143.495 53.8028C143.439 53.7467 143.407 53.671 143.406 53.5917V48.9958C143.407 48.9165 143.439 48.8407 143.495 48.7846C143.551 48.7285 143.627 48.6967 143.706 48.6958C143.786 48.6966 143.862 48.7284 143.919 48.7844C143.975 48.8404 144.008 48.9162 144.009 48.9958V50.8954C144.127 50.6965 144.297 50.533 144.5 50.4222C144.702 50.3113 144.932 50.2572 145.163 50.2655C145.342 50.2632 145.521 50.2983 145.686 50.3686C145.852 50.4389 146.001 50.5428 146.124 50.6738C146.247 50.8048 146.342 50.9601 146.402 51.1296C146.462 51.2991 146.486 51.4793 146.472 51.6586V53.5917C146.47 53.6716 146.436 53.7473 146.379 53.8032C146.322 53.8591 146.246 53.8908 146.166 53.8916Z" fill="white"/>
<path d="M147.306 52.0987C147.306 51.0188 148.025 50.2656 149.005 50.2656C149.888 50.2656 150.555 50.8789 150.555 51.9654V52.002C150.555 52.1753 150.448 52.2453 150.282 52.2453H147.922C147.969 53.0085 148.432 53.4151 149.069 53.4151C149.258 53.4163 149.446 53.371 149.614 53.2833C149.783 53.1956 149.927 53.0681 150.035 52.9119C150.06 52.8838 150.09 52.8611 150.124 52.8451C150.158 52.829 150.194 52.82 150.232 52.8185C150.285 52.8171 150.338 52.8314 150.383 52.8597C150.429 52.8879 150.465 52.929 150.487 52.9776C150.51 53.0262 150.517 53.0803 150.509 53.1332C150.501 53.1861 150.478 53.2355 150.442 53.2751C150.28 53.4869 150.071 53.6577 149.832 53.7735C149.592 53.8893 149.328 53.9469 149.062 53.9417C148.005 53.935 147.306 53.2418 147.306 52.0987ZM149.952 51.7654C149.895 51.0655 149.462 50.7655 148.999 50.7655C148.727 50.7635 148.466 50.8665 148.269 51.0528C148.072 51.2392 147.955 51.4945 147.942 51.7654H149.952Z" fill="white"/>
<path d="M153.678 48.6592C153.737 48.6596 153.796 48.6719 153.85 48.6954C153.905 48.7189 153.954 48.7531 153.995 48.796C154.036 48.8389 154.068 48.8896 154.089 48.9451C154.11 49.0006 154.12 49.0598 154.118 49.1191C154.117 49.1764 154.106 49.2331 154.083 49.2859C154.061 49.3388 154.028 49.3866 153.988 49.4268C153.947 49.4671 153.898 49.4989 153.845 49.5204C153.792 49.5419 153.735 49.5528 153.678 49.5524C153.621 49.5528 153.564 49.5419 153.512 49.5203C153.459 49.4987 153.411 49.4668 153.371 49.4265C153.33 49.3861 153.298 49.3382 153.277 49.2854C153.255 49.2327 153.244 49.1761 153.245 49.1191C153.241 49.0601 153.25 49.0011 153.271 48.9456C153.291 48.8902 153.322 48.8394 153.363 48.7964C153.403 48.7534 153.452 48.7191 153.506 48.6955C153.56 48.6719 153.619 48.6595 153.678 48.6592ZM153.378 53.5917V50.6155C153.377 50.5348 153.408 50.4569 153.464 50.3989C153.52 50.3408 153.597 50.3073 153.678 50.3056C153.758 50.3082 153.835 50.342 153.891 50.3998C153.947 50.4577 153.978 50.535 153.978 50.6155V53.5917C153.976 53.6707 153.944 53.746 153.888 53.8019C153.832 53.8578 153.757 53.8899 153.678 53.8916C153.599 53.8908 153.523 53.8589 153.467 53.8028C153.411 53.7468 153.379 53.671 153.378 53.5917Z" fill="white"/>
<path d="M155.368 50.3056C155.444 50.3074 155.517 50.339 155.571 50.3938C155.624 50.4486 155.654 50.5222 155.654 50.5989V50.9321C155.77 50.7225 155.943 50.5493 156.151 50.4316C156.36 50.3139 156.598 50.2564 156.837 50.2656C157.017 50.2632 157.195 50.2984 157.361 50.3686C157.527 50.4389 157.676 50.5429 157.799 50.6739C157.922 50.8049 158.017 50.9601 158.077 51.1297C158.136 51.2992 158.161 51.4794 158.147 51.6587V53.5917C158.145 53.6716 158.111 53.7474 158.054 53.8033C157.997 53.8592 157.92 53.8908 157.84 53.8917C157.761 53.8908 157.685 53.8591 157.628 53.8031C157.572 53.7471 157.539 53.6713 157.537 53.5917V51.8054C157.537 51.3621 157.434 50.8322 156.721 50.8322C156.007 50.8322 155.684 51.3854 155.684 52.1953V53.5917C155.682 53.6713 155.65 53.7471 155.593 53.8031C155.537 53.8591 155.46 53.8908 155.381 53.8917C155.302 53.8908 155.226 53.8589 155.17 53.8028C155.114 53.7468 155.082 53.671 155.081 53.5917V50.5922C155.082 50.5165 155.112 50.4441 155.166 50.3905C155.219 50.337 155.292 50.3065 155.368 50.3056Z" fill="white"/>
<path d="M160.687 50.2652C160.968 50.2548 161.246 50.3217 161.492 50.4586C161.737 50.5955 161.941 50.7972 162.08 51.0418C162.112 51.0861 162.132 51.1385 162.136 51.1931C162.141 51.2478 162.13 51.3027 162.106 51.3519C162.082 51.401 162.044 51.4425 161.998 51.4719C161.951 51.5012 161.898 51.5173 161.843 51.5184C161.789 51.5197 161.735 51.5077 161.686 51.4833C161.637 51.4589 161.595 51.4229 161.563 51.3784C161.483 51.2098 161.357 51.067 161.2 50.9663C161.042 50.8656 160.86 50.8109 160.673 50.8085C160.037 50.8085 159.603 51.3551 159.603 52.1183C159.603 52.8815 160.037 53.3947 160.687 53.3947C160.89 53.3903 161.088 53.3268 161.256 53.212C161.424 53.0973 161.555 52.9361 161.633 52.7482C161.659 52.704 161.695 52.6668 161.739 52.6401C161.782 52.6133 161.832 52.5978 161.883 52.5949C161.937 52.5918 161.992 52.6042 162.039 52.6308C162.087 52.6574 162.126 52.6969 162.151 52.7448C162.177 52.7927 162.189 52.847 162.185 52.9013C162.181 52.9556 162.162 53.0077 162.13 53.0515C161.997 53.3214 161.79 53.5479 161.534 53.7043C161.277 53.8608 160.981 53.9407 160.68 53.9346C159.68 53.9346 158.977 53.2414 158.977 52.1183C158.977 50.9951 159.693 50.2652 160.687 50.2652Z" fill="white"/>
<path d="M162.77 52.0987C162.77 51.0188 163.49 50.2656 164.473 50.2656C165.353 50.2656 166.019 50.8789 166.019 51.9654V52.002C166.019 52.1753 165.912 52.2453 165.746 52.2453H163.386C163.436 53.0085 163.896 53.4151 164.533 53.4151C164.723 53.4163 164.91 53.371 165.078 53.2833C165.247 53.1956 165.391 53.0681 165.499 52.9119C165.524 52.8838 165.554 52.8611 165.588 52.8451C165.622 52.829 165.658 52.82 165.696 52.8185C165.749 52.8171 165.802 52.8314 165.848 52.8597C165.893 52.8879 165.929 52.929 165.951 52.9776C165.974 53.0262 165.981 53.0803 165.973 53.1332C165.965 53.1861 165.942 53.2355 165.906 53.2751C165.745 53.4873 165.536 53.6583 165.296 53.7742C165.056 53.8901 164.792 53.9474 164.526 53.9417C163.47 53.935 162.77 53.2418 162.77 52.0987ZM165.416 51.7654C165.359 51.0655 164.926 50.7655 164.463 50.7655C164.192 50.7643 163.931 50.8676 163.734 51.0538C163.537 51.24 163.42 51.4948 163.406 51.7654H165.416Z" fill="white"/>
<path d="M167.199 50.3056C167.276 50.3074 167.348 50.339 167.402 50.3938C167.456 50.4486 167.486 50.5222 167.486 50.5989V50.9321C167.602 50.7225 167.774 50.5493 167.983 50.4316C168.192 50.3139 168.429 50.2564 168.669 50.2656C168.849 50.2632 169.027 50.2984 169.192 50.3686C169.358 50.4389 169.507 50.5429 169.63 50.6739C169.753 50.8049 169.848 50.9601 169.908 51.1297C169.968 51.2992 169.992 51.4794 169.979 51.6587V53.5917C169.976 53.6716 169.943 53.7474 169.885 53.8033C169.828 53.8592 169.752 53.8908 169.672 53.8917C169.592 53.8908 169.516 53.8591 169.46 53.8031C169.403 53.7471 169.37 53.6713 169.369 53.5917V51.8054C169.369 51.3621 169.265 50.8322 168.552 50.8322C167.839 50.8322 167.516 51.3854 167.516 52.1953V53.5917C167.514 53.6713 167.481 53.7471 167.425 53.8031C167.368 53.8591 167.292 53.8908 167.212 53.8917C167.133 53.8908 167.057 53.8589 167.001 53.8028C166.945 53.7468 166.913 53.671 166.912 53.5917V50.5922C166.913 50.5165 166.944 50.4441 166.997 50.3905C167.051 50.337 167.123 50.3065 167.199 50.3056Z" fill="white"/>
<path d="M170.532 50.6152C170.531 50.5803 170.538 50.5457 170.551 50.5134C170.564 50.481 170.583 50.4516 170.608 50.4268C170.632 50.402 170.661 50.3823 170.694 50.3689C170.726 50.3555 170.76 50.3485 170.795 50.3485H171.162V49.3254C171.163 49.2461 171.194 49.1703 171.25 49.1142C171.307 49.0582 171.382 49.0263 171.462 49.0254C171.542 49.0245 171.62 49.0555 171.678 49.1117C171.736 49.1679 171.77 49.2446 171.772 49.3254V50.3485H172.631C172.666 50.3489 172.7 50.3562 172.732 50.3698C172.764 50.3835 172.792 50.4033 172.817 50.428C172.841 50.4528 172.86 50.482 172.873 50.5141C172.885 50.5462 172.892 50.5806 172.891 50.6152C172.89 50.6832 172.862 50.748 172.813 50.7959C172.765 50.8437 172.7 50.8709 172.631 50.8718H171.765V52.7848C171.765 53.1181 171.862 53.3947 172.331 53.3947C172.456 53.3933 172.579 53.3696 172.695 53.3247C172.733 53.305 172.776 53.2957 172.82 53.2978C172.863 53.2998 172.905 53.3131 172.942 53.3363C172.978 53.3595 173.008 53.3918 173.029 53.4301C173.049 53.4684 173.059 53.5113 173.058 53.5547C173.059 53.6025 173.047 53.6496 173.022 53.6904C172.997 53.7313 172.961 53.764 172.918 53.7846C172.728 53.8849 172.516 53.9364 172.301 53.9346C171.455 53.9346 171.155 53.458 171.155 52.8415V50.8718H170.788C170.721 50.8709 170.656 50.8436 170.608 50.7957C170.56 50.7477 170.533 50.6829 170.532 50.6152Z" fill="white"/>
<path d="M174.041 48.6592C174.158 48.6601 174.271 48.707 174.354 48.79C174.437 48.8729 174.484 48.9851 174.484 49.1024C174.483 49.2185 174.435 49.3292 174.352 49.4104C174.269 49.4916 174.157 49.5366 174.041 49.5357C173.926 49.5357 173.816 49.4901 173.735 49.4088C173.654 49.3276 173.608 49.2173 173.608 49.1024C173.607 48.9863 173.652 48.8746 173.733 48.7916C173.814 48.7085 173.925 48.6609 174.041 48.6592ZM173.741 53.5917V50.6155C173.74 50.5348 173.771 50.4569 173.827 50.3989C173.884 50.3408 173.96 50.3073 174.041 50.3056C174.122 50.3082 174.198 50.342 174.254 50.3998C174.31 50.4577 174.341 50.535 174.341 50.6155V53.5917C174.339 53.6707 174.307 53.746 174.251 53.8019C174.196 53.8578 174.12 53.8899 174.041 53.8916C173.962 53.8908 173.886 53.8589 173.83 53.8028C173.774 53.7468 173.742 53.671 173.741 53.5917Z" fill="white"/>
<path d="M176.281 53.6118L175.111 50.7256C175.092 50.6789 175.086 50.6284 175.091 50.5785C175.097 50.5286 175.114 50.4809 175.143 50.4394C175.171 50.3979 175.209 50.3641 175.253 50.3407C175.298 50.3174 175.347 50.3054 175.398 50.3057C175.462 50.307 175.524 50.3269 175.578 50.363C175.631 50.3991 175.672 50.4498 175.698 50.509L176.727 53.2052L177.757 50.509C177.777 50.4514 177.813 50.4011 177.862 50.3647C177.911 50.3284 177.97 50.3078 178.03 50.3057C178.078 50.3057 178.125 50.3173 178.167 50.3396C178.21 50.3618 178.246 50.394 178.273 50.4335C178.3 50.4729 178.317 50.5183 178.322 50.5657C178.327 50.6131 178.321 50.6611 178.304 50.7056L177.127 53.6118C177.092 53.6943 177.034 53.7647 176.959 53.8145C176.885 53.8642 176.797 53.8911 176.707 53.8917C176.617 53.8919 176.528 53.8656 176.452 53.8158C176.376 53.766 176.317 53.6951 176.281 53.6118Z" fill="white"/>
<path d="M178.757 52.0987C178.757 51.0188 179.477 50.2656 180.46 50.2656C181.34 50.2656 182.007 50.8789 182.007 51.9654V52.002C182.007 52.1753 181.9 52.2453 181.733 52.2453H179.374C179.424 53.0085 179.884 53.4151 180.52 53.4151C180.71 53.4163 180.897 53.371 181.066 53.2833C181.234 53.1956 181.379 53.0681 181.487 52.9119C181.511 52.8838 181.542 52.8611 181.575 52.8451C181.609 52.829 181.646 52.82 181.683 52.8185C181.737 52.8171 181.79 52.8314 181.835 52.8597C181.88 52.8879 181.917 52.929 181.939 52.9776C181.961 53.0262 181.969 53.0803 181.961 53.1332C181.953 53.1861 181.929 53.2355 181.893 53.2751C181.732 53.4873 181.523 53.6583 181.283 53.7742C181.044 53.8901 180.78 53.9474 180.513 53.9417C179.457 53.935 178.757 53.2418 178.757 52.0987ZM181.403 51.7654C181.347 51.0655 180.913 50.7655 180.45 50.7655C180.179 50.7635 179.918 50.8665 179.721 51.0528C179.524 51.2392 179.407 51.4945 179.394 51.7654H181.403Z" fill="white"/>
<path d="M184.809 50.3056C184.874 50.3075 184.937 50.3284 184.991 50.3657C185.044 50.403 185.085 50.4551 185.109 50.5155L186.109 53.1817L187.146 50.5155C187.168 50.458 187.206 50.4079 187.256 50.3708C187.305 50.3338 187.364 50.3112 187.426 50.3056C187.472 50.301 187.518 50.3079 187.561 50.3259C187.603 50.3438 187.641 50.3721 187.67 50.4082C187.698 50.4444 187.718 50.4872 187.726 50.5327C187.734 50.5782 187.73 50.625 187.716 50.6689L185.879 55.2347C185.856 55.2894 185.817 55.3359 185.767 55.3685C185.717 55.4011 185.659 55.4183 185.599 55.4181C185.552 55.4178 185.505 55.4059 185.463 55.3834C185.422 55.3609 185.386 55.3284 185.36 55.2889C185.333 55.2495 185.317 55.2041 185.312 55.1569C185.308 55.1097 185.315 55.062 185.333 55.0181L185.796 53.8983L184.513 50.7388C184.497 50.6906 184.493 50.6395 184.501 50.5894C184.508 50.5394 184.527 50.4917 184.555 50.4499C184.584 50.4081 184.622 50.3734 184.666 50.3484C184.71 50.3234 184.759 50.3088 184.809 50.3056Z" fill="white"/>
<path d="M188.155 52.0983C188.14 51.8593 188.175 51.6196 188.257 51.3947C188.34 51.1698 188.468 50.9646 188.634 50.7921C188.8 50.6196 189.001 50.4837 189.222 50.393C189.444 50.3023 189.682 50.2588 189.922 50.2653C190.161 50.2588 190.4 50.3023 190.622 50.393C190.843 50.4837 191.044 50.6195 191.21 50.792C191.377 50.9644 191.506 51.1696 191.588 51.3945C191.671 51.6194 191.706 51.8591 191.691 52.0983C191.706 52.3377 191.671 52.5775 191.588 52.8026C191.506 53.0277 191.377 53.2331 191.211 53.4058C191.044 53.5785 190.844 53.7147 190.622 53.8058C190.4 53.8968 190.162 53.9407 189.922 53.9347C189.682 53.9407 189.444 53.8968 189.222 53.8058C189.001 53.7147 188.8 53.5784 188.634 53.4057C188.468 53.2329 188.34 53.0275 188.257 52.8024C188.175 52.5773 188.14 52.3375 188.155 52.0983ZM189.922 53.3948C190.588 53.3948 191.068 52.8549 191.068 52.0983C191.068 51.3418 190.595 50.8019 189.922 50.8019C189.249 50.8019 188.779 51.3418 188.779 52.0983C188.779 52.8549 189.249 53.3948 189.922 53.3948Z" fill="white"/>
<path d="M192.528 52.6519V50.6156C192.528 50.534 192.56 50.4556 192.618 50.3976C192.675 50.3396 192.753 50.3065 192.835 50.3057C192.915 50.3082 192.992 50.3419 193.049 50.3997C193.105 50.4574 193.137 50.5348 193.138 50.6156V52.5053C193.138 52.8886 193.235 53.3651 193.928 53.3651C194.621 53.3651 194.928 52.7852 194.928 52.0087V50.6156C194.928 50.5345 194.959 50.4567 195.016 50.3987C195.073 50.3408 195.15 50.3074 195.231 50.3057C195.313 50.3065 195.39 50.3396 195.448 50.3976C195.505 50.4556 195.538 50.534 195.538 50.6156V53.6151C195.536 53.6917 195.504 53.7646 195.449 53.8182C195.394 53.8718 195.321 53.9017 195.244 53.9017C195.169 53.9 195.097 53.8693 195.043 53.8159C194.99 53.7625 194.959 53.6906 194.958 53.6151V53.2818C194.849 53.489 194.684 53.6615 194.482 53.7793C194.28 53.8972 194.048 53.9558 193.814 53.9484C193.642 53.9566 193.471 53.9286 193.31 53.8662C193.15 53.8038 193.004 53.7084 192.883 53.5862C192.762 53.464 192.667 53.3177 192.606 53.1568C192.545 52.9958 192.518 52.8238 192.528 52.6519Z" fill="white"/>
<path d="M138.95 58.5039C138.95 57.4308 139.58 56.6342 140.56 56.6342C140.799 56.626 141.035 56.679 141.248 56.7881C141.46 56.8972 141.641 57.0587 141.773 57.2574V55.3644C141.774 55.2851 141.806 55.2093 141.862 55.1533C141.918 55.0972 141.994 55.0653 142.073 55.0645C142.153 55.0645 142.229 55.0961 142.285 55.1523C142.341 55.2086 142.373 55.2849 142.373 55.3644V59.9736C142.373 60.0496 142.343 60.1226 142.289 60.1763C142.235 60.2301 142.162 60.2603 142.086 60.2603C142.011 60.2594 141.938 60.2289 141.885 60.1754C141.831 60.1218 141.801 60.0494 141.8 59.9736V59.6404C141.67 59.8511 141.488 60.0238 141.27 60.1408C141.052 60.2579 140.807 60.3152 140.56 60.3069C139.587 60.3036 138.95 59.5537 138.95 58.5039ZM140.667 59.7637C141.333 59.7637 141.787 59.2305 141.787 58.4673C141.787 57.704 141.337 57.1741 140.667 57.1741C139.997 57.1741 139.574 57.7274 139.574 58.4673C139.574 59.2071 139.98 59.7637 140.667 59.7637Z" fill="white"/>
<path d="M143.256 58.4673C143.256 57.3908 143.979 56.6343 144.959 56.6343C145.842 56.6343 146.506 57.2508 146.506 58.334V58.3706C146.506 58.5439 146.402 58.6139 146.232 58.6139H143.869C143.919 59.3771 144.379 59.7837 145.019 59.7837C145.209 59.7849 145.396 59.7396 145.565 59.6519C145.733 59.5642 145.878 59.4367 145.986 59.2805C146.01 59.2527 146.039 59.2303 146.073 59.2148C146.106 59.1993 146.142 59.191 146.179 59.1905C146.232 59.189 146.285 59.203 146.33 59.2309C146.375 59.2587 146.411 59.2992 146.434 59.3473C146.457 59.3954 146.465 59.4491 146.457 59.5018C146.45 59.5544 146.427 59.6038 146.392 59.6437C146.231 59.8559 146.022 60.027 145.783 60.1428C145.543 60.2587 145.279 60.3161 145.013 60.3103C143.956 60.3036 143.256 59.6105 143.256 58.4673ZM145.902 58.134C145.849 57.4341 145.413 57.1342 144.953 57.1342C144.681 57.1321 144.419 57.235 144.222 57.4213C144.024 57.6075 143.907 57.8629 143.893 58.134H145.902Z" fill="white"/>
<path d="M148.565 60.3038C148.117 60.3156 147.674 60.2 147.289 59.9705C147.246 59.9437 147.211 59.9075 147.184 59.8648C147.157 59.822 147.141 59.7739 147.136 59.7239C147.136 59.6472 147.166 59.5736 147.219 59.5188C147.273 59.464 147.346 59.4323 147.422 59.4306C147.485 59.4324 147.547 59.452 147.599 59.4873C147.868 59.6716 148.183 59.7756 148.509 59.7872C149.145 59.7872 149.312 59.5139 149.312 59.2473C149.312 58.9807 149.102 58.8574 148.712 58.774L148.202 58.6507C147.762 58.5541 147.202 58.3174 147.202 57.6509C147.202 57.1576 147.596 56.6277 148.455 56.6277C148.869 56.6205 149.274 56.7454 149.612 56.9843C149.651 57.0123 149.685 57.0485 149.709 57.0905C149.733 57.1325 149.748 57.1793 149.752 57.2276C149.753 57.2662 149.746 57.3047 149.731 57.3405C149.717 57.3763 149.695 57.4088 149.668 57.4359C149.64 57.4631 149.608 57.4843 149.572 57.4984C149.536 57.5124 149.497 57.5189 149.459 57.5176C149.394 57.512 149.332 57.4927 149.275 57.4609C149.038 57.2656 148.742 57.1563 148.435 57.151C147.895 57.151 147.786 57.4309 147.786 57.6142C147.786 57.9075 147.965 58.0208 148.309 58.0975L148.892 58.2308C149.499 58.3708 149.892 58.6174 149.892 59.1906C149.892 59.7639 149.469 60.3038 148.565 60.3038Z" fill="white"/>
<path d="M150.535 58.4673C150.535 57.3908 151.255 56.6343 152.235 56.6343C153.118 56.6343 153.784 57.2508 153.784 58.334V58.3706C153.784 58.5439 153.678 58.6139 153.511 58.6139H151.145C151.192 59.3771 151.655 59.7837 152.291 59.7837C152.481 59.7849 152.669 59.7396 152.837 59.6519C153.005 59.5642 153.15 59.4367 153.258 59.2805C153.283 59.2527 153.313 59.2304 153.347 59.2149C153.381 59.1995 153.417 59.1911 153.455 59.1905C153.507 59.1897 153.559 59.2042 153.604 59.2323C153.649 59.2604 153.685 59.3009 153.707 59.3489C153.729 59.3969 153.737 59.4503 153.729 59.5026C153.722 59.555 153.699 59.604 153.665 59.6437C153.505 59.8571 153.296 60.0291 153.056 60.145C152.816 60.261 152.551 60.3177 152.285 60.3103C151.228 60.3036 150.535 59.6105 150.535 58.4673ZM153.181 58.134C153.125 57.4341 152.691 57.1342 152.228 57.1342C151.957 57.1322 151.696 57.2351 151.499 57.4215C151.302 57.6078 151.184 57.8632 151.172 58.134H153.181Z" fill="white"/>
<path d="M154.664 59.9607V56.9612C154.663 56.9228 154.67 56.8847 154.684 56.8489C154.698 56.8132 154.719 56.7806 154.746 56.753C154.772 56.7254 154.804 56.7034 154.84 56.6882C154.875 56.673 154.913 56.665 154.951 56.6646C155.028 56.6671 155.101 56.6995 155.154 56.7549C155.208 56.8102 155.238 56.8842 155.238 56.9612V57.4777C155.305 57.2516 155.442 57.0525 155.629 56.9094C155.817 56.7662 156.045 56.6863 156.281 56.6812H156.337C156.376 56.6802 156.414 56.6872 156.45 56.7017C156.485 56.7162 156.518 56.7379 156.545 56.7654C156.572 56.7929 156.592 56.8257 156.606 56.8617C156.62 56.8976 156.626 56.936 156.624 56.9745C156.623 57.052 156.592 57.1261 156.537 57.1809C156.482 57.2357 156.408 57.2669 156.331 57.2678H156.287C155.678 57.2678 155.264 57.7877 155.264 58.7042V59.9507C155.263 60.0297 155.23 60.105 155.175 60.1609C155.119 60.2168 155.043 60.2489 154.964 60.2506C154.887 60.2498 154.812 60.2193 154.757 60.1654C154.701 60.1115 154.668 60.0382 154.664 59.9607Z" fill="white"/>
<path d="M158.304 59.9805L157.134 57.0943C157.115 57.0476 157.109 56.9971 157.114 56.9472C157.12 56.8973 157.137 56.8495 157.166 56.8081C157.194 56.7666 157.232 56.7328 157.276 56.7094C157.321 56.6861 157.37 56.6741 157.421 56.6744C157.485 56.6757 157.547 56.6956 157.601 56.7317C157.654 56.7678 157.696 56.8184 157.721 56.8777L158.75 59.5739L159.78 56.8777C159.8 56.8203 159.837 56.7702 159.886 56.734C159.934 56.6978 159.993 56.677 160.054 56.6744C160.102 56.6735 160.149 56.6846 160.192 56.7067C160.234 56.7287 160.271 56.761 160.298 56.8007C160.325 56.8403 160.342 56.8861 160.347 56.9338C160.352 56.9816 160.345 57.0298 160.327 57.0743L159.15 59.9805C159.116 60.0635 159.058 60.1344 158.983 60.1843C158.908 60.2341 158.82 60.2607 158.73 60.2604C158.64 60.2607 158.551 60.2342 158.475 60.1845C158.399 60.1347 158.34 60.0638 158.304 59.9805Z" fill="white"/>
<path d="M160.78 58.4673C160.78 57.3908 161.5 56.6343 162.483 56.6343C163.363 56.6343 164.029 57.2508 164.029 58.334V58.3706C164.029 58.5439 163.923 58.6139 163.756 58.6139H161.397C161.447 59.3771 161.907 59.7837 162.546 59.7837C162.736 59.7849 162.923 59.7396 163.091 59.6519C163.258 59.5642 163.402 59.4367 163.51 59.2805C163.534 59.2527 163.565 59.2304 163.598 59.2149C163.632 59.1995 163.669 59.1911 163.706 59.1905C163.76 59.1881 163.813 59.2017 163.858 59.2295C163.904 59.2573 163.941 59.2981 163.963 59.3467C163.986 59.3953 163.993 59.4495 163.985 59.5024C163.977 59.5553 163.953 59.6045 163.916 59.6437C163.756 59.8571 163.548 60.0291 163.307 60.145C163.067 60.261 162.803 60.3177 162.536 60.3103C161.48 60.3036 160.78 59.6105 160.78 58.4673ZM163.426 58.134C163.37 57.4341 162.936 57.1342 162.476 57.1342C162.205 57.1321 161.943 57.235 161.746 57.4213C161.548 57.6075 161.43 57.8629 161.417 58.134H163.426Z" fill="white"/>
</g>
<defs>
<clipPath id="clip0_14_7374">
<rect width="201" height="67.9087" fill="white" transform="translate(0 0.09375)"/>
</clipPath>
</defs>
</svg>
